<svg width="71" height="181" viewBox="0 0 71 181" fill="none" xmlns="http://www.w3.org/2000/svg">
<path fill-rule="evenodd" clip-rule="evenodd" d="M4.7304 57.3475C4.65173 57.053 4.50142 56.8943 4.22409 56.9479C3.74678 57.0398 3.47956 57.3334 3.45231 57.8265C3.43736 58.0968 3.59647 58.1491 3.8215 58.1091C4.28386 58.0269 4.49834 57.6661 4.7304 57.3475ZM2.28595 144.175C2.75754 142.849 3.063 141.48 3.45944 140.136C2.68239 141.368 2.26178 142.707 2.28595 144.175ZM5.7813 54.5975C7.74855 52.4764 9.80151 50.4392 11.8865 48.4338C9.35277 49.998 7.39562 52.1287 5.7813 54.5975ZM44.5528 33.6046C48.6143 31.7675 51.9924 29.0153 55.2166 26.0494C51.8531 28.5766 48.4939 31.1065 44.9031 33.3102C44.7747 33.3893 44.6692 33.5058 44.5528 33.6046ZM91.0037 135.677C89.8231 139.71 87.4797 143.131 86.3 147.046C87.7838 145.999 91.615 136.991 91.0037 135.677ZM43.3645 175.775C44.1565 175.775 44.9559 175.843 45.7396 175.762C48.9507 175.432 52.1195 174.823 55.288 174.223C59.989 173.333 64.3252 171.336 68.7739 169.696C70.8265 168.94 72.7898 167.908 74.1804 166.087C78.7759 160.07 82.4757 153.592 85.1022 146.442C87.1987 140.736 89.9263 135.264 92.1669 129.607C93.7668 125.569 94.7878 121.337 95.2453 116.995C95.6263 113.378 95.4123 109.751 95.4382 106.126C95.4593 103.145 95.4066 100.167 95.5943 97.1761C95.7261 95.07 95.2536 92.8759 95.073 90.7184C94.7543 86.9192 94.8119 83.1671 95.9665 79.4818C97.0319 76.0817 98.4761 72.8443 100.269 69.7857C103.899 63.593 108.45 58.0763 113.223 52.7498C115.786 49.8895 118.301 47.001 120.42 43.7948C124.321 37.8952 126.193 31.3795 126.031 24.3244C125.905 18.809 123.489 14.5268 118.731 11.6173C110.46 6.56026 101.728 4.94198 92.3542 8.02164C85.0943 10.4069 78.6304 14.1968 72.7172 19.0103C69.0293 22.0126 65.6622 25.3736 61.9844 28.3846C56.9753 32.4866 51.8862 36.4664 45.9866 39.2555C41.421 41.4144 36.6219 42.9329 31.7952 44.3604C27.6748 45.5792 23.7456 47.2243 20.0334 49.3836C15.7491 51.8757 12.131 55.0639 9.6267 59.4076C9.32915 59.9249 9.31772 59.9183 8.63999 59.9323C8.4343 59.9367 8.42156 60.1077 8.35255 60.2448C7.72581 61.4952 7.31662 62.7997 7.29992 64.2136C7.2885 65.1687 7.65725 66.5347 7.33025 66.9944C6.28026 68.4694 7.07094 69.8983 7.26432 71.1412C7.50474 72.683 7.90865 74.2828 8.38112 75.8277C9.56648 79.706 10.9285 83.5148 12.8602 87.0774C14.6314 90.3456 16.3473 93.6429 16.8584 97.3444C17.0061 98.4173 18.2991 99.6422 16.9191 100.788C16.9186 100.788 17.0158 100.895 17.0571 100.959C17.7897 102.088 18.1598 103.363 18.2156 104.672C18.2697 105.923 18.7167 107.092 18.7703 108.328C18.8569 110.324 19.597 112.263 19.1694 114.313C18.9751 115.245 19.0204 116.235 19.0186 117.198C19.0147 119.344 18.2877 121.388 18.1752 123.538C18.133 124.344 17.4293 125.368 17.0417 126.29C15.652 129.597 13.1867 132.116 11.0239 134.875C8.98897 137.471 6.70263 140.015 6.48858 143.573C6.40244 145.009 5.97524 146.524 6.71581 147.871C8.70812 151.491 9.75591 155.595 12.4892 158.841C14.6165 161.367 16.0449 164.428 18.6367 166.623C21.1713 168.769 23.5913 171.08 26.5193 172.666C27.9565 173.445 29.4139 174.241 31.1012 174.614C35.1553 175.508 39.2335 175.832 43.3645 175.775ZM76.9185 8.70075C77.1422 8.63307 77.3844 8.59922 77.587 8.49154C82.648 5.79997 87.9226 3.66834 93.5167 2.35948C93.7188 2.31201 93.9962 2.31904 94.1162 2.00831C93.7377 2.06237 93.3822 2.10456 93.0297 2.16565C88.3849 2.97348 84.0795 4.74603 79.8975 6.84513C78.8568 7.36771 77.7176 7.77338 76.9396 8.72536C75.6927 8.81239 74.9315 9.86458 73.8525 10.2975C73.6635 10.3731 73.4596 10.7168 73.7479 11.0086C73.8437 11.1053 73.976 11.1677 74.0353 11.0539C74.6634 9.85623 76.1867 9.76261 76.9185 8.70075ZM62.778 26.9192C64.2258 26.0187 65.3777 24.7885 66.5275 23.557C65.2894 24.6896 63.7933 25.5392 62.8013 26.9439C61.7443 27.3183 61.0688 28.1767 60.3141 28.9335C61.2731 28.4334 62.0963 27.7635 62.778 26.9192ZM94.725 142.086C93.8847 144.384 93.0799 146.669 91.379 148.562C90.351 149.706 89.5313 151.083 88.8531 152.47C88.6075 152.974 88.1561 153.126 87.899 153.576C87.299 154.627 87.0788 155.814 86.3106 156.835C84.5789 159.136 82.8696 161.447 81.0619 163.695C79.8691 165.178 78.7527 166.736 77.5133 168.184C75.2037 170.882 72.2559 172.691 68.9837 173.98C65.2026 175.468 61.4571 177.084 57.592 178.318C50.3893 180.618 43.0376 181.545 35.4292 180.637C30.8456 180.091 26.3814 179.225 22.4531 176.884C16.1707 173.14 10.9915 168.154 7.33346 161.721C7.19633 161.48 7.02009 161.261 6.85527 161.037C5.36005 159.003 4.01031 156.902 3.32379 154.426C2.98361 153.201 2.48125 152.025 1.92659 150.869C0.281497 147.441 0.597506 143.989 1.92615 140.55C3.26358 137.09 5.49718 134.152 7.99404 131.547C11.3304 128.066 12.8959 124.029 13.3943 119.363C13.858 115.023 13.0963 110.82 12.3232 106.601C11.849 104.013 11.4249 101.413 10.9155 98.8316C10.0936 94.6698 8.17908 90.9604 6.21314 87.2416C3.65387 82.3995 1.6976 77.3021 0.514878 71.9269C-0.474902 67.4289 0.0129556 63.0123 1.54465 58.7714C2.42719 56.3282 3.57432 53.9302 5.43345 51.9511C7.24336 50.0238 9.06953 48.1366 11.228 46.5974C16.4155 42.8971 22.1344 40.3014 28.1979 38.4119C35.1207 36.2548 41.8628 33.7026 47.7777 29.3571C52.1605 26.1372 56.3306 22.6625 60.3359 18.9864C65.7898 13.9808 71.5021 9.3211 78.1036 5.87489C84.5029 2.5346 91.1865 -0.0655468 98.5013 0.0012589C109.511 0.101907 118.938 3.99246 125.616 13.0482C130.554 19.7463 131.354 27.4215 129.741 35.4347C129.449 36.8815 129.155 38.328 128.817 39.7643C127.948 43.454 126.447 46.8466 124.243 49.9583C122.958 51.7718 121.573 53.5083 120.287 55.3023C118.778 57.408 117.097 59.3375 115.36 61.2186C113.348 63.3973 111.565 65.735 109.871 68.1554C109.28 68.9984 108.345 69.51 107.774 70.4171C105.615 73.8475 103.371 77.2269 101.83 81.0001C100.998 83.0368 100.15 85.023 99.986 87.3181C99.8862 88.7254 99.9719 90.1279 99.8493 91.5264C99.6656 93.6212 100.027 95.6855 100.36 97.7328C100.488 98.5186 99.535 99.1546 99.7403 99.2095C100.851 99.5045 100.07 100.129 100.093 100.582C100.106 100.85 99.9359 101.145 99.9965 101.391C101.028 105.575 100.582 109.847 100.67 114.073C100.752 117.996 101.094 121.992 100.034 125.837C99.6467 127.239 99.3645 128.679 98.9562 130.081C98.4661 131.762 97.5621 133.339 97.4113 135.093C97.199 137.564 95.9504 139.634 95.0511 141.843C95.0019 141.964 94.8195 142.032 94.6973 142.128C94.8125 140.812 95.8897 139.832 95.9275 138.479C95.0046 140.441 93.8522 142.299 93.374 144.461C93.8245 143.669 94.2745 142.878 94.725 142.086Z" fill="#FF6D88"/>
<path fill-rule="evenodd" clip-rule="evenodd" d="M54.1751 46.127C56.7537 44.6137 58.8445 42.5401 60.8016 40.3144C58.601 42.2619 56.4377 44.2511 54.1751 46.127ZM69.0822 33.1758C68.9965 33.0844 68.9108 32.993 68.8251 32.9016C66.5656 34.966 64.118 36.8198 62.156 39.2174L69.0822 33.1758ZM17.1379 142.563C15.8136 143.878 15.2106 147.954 16.0795 148.794C16.3274 146.729 16.334 144.587 17.1379 142.563ZM27.1624 60.4392C24.0555 62.5449 21.2826 64.9605 19.9404 68.6366C22.0768 65.6641 24.4238 62.8829 27.1624 60.4392ZM73.3235 29.4309C78.5181 25.3619 83.9654 21.75 90.0606 19.1868C86.0676 19.7155 74.9919 27.0347 73.3235 29.4309ZM71.4956 126.481C70.2544 128.96 69.4852 131.615 68.7543 134.264C68.0067 136.973 66.9976 139.588 66.1221 142.248C65.2945 144.762 64.0986 147.155 63.0649 149.601C67.489 142.466 69.1389 134.351 71.4956 126.481ZM27.0518 86.6851C27.0725 86.5326 27.0386 86.3128 27.1256 86.242C27.283 86.1137 27.3643 86.3093 27.4689 86.4249C27.7651 86.7501 27.6267 87.2411 28.0328 87.5667C28.7822 88.1667 29.2977 88.9217 29.6709 89.8755C29.9891 90.6886 30.8575 91.2797 31.4496 91.9961C31.5818 92.1557 31.7475 92.4255 31.577 92.6523C31.2601 93.0729 31.5142 93.2109 31.8631 93.3098C32.2943 93.4311 32.5224 93.7572 32.6688 94.133C33.1971 95.4867 33.9003 96.7723 34.0576 98.2636C34.1591 99.2256 34.3143 100.375 34.6707 101.077C35.6631 103.033 35.6992 105.095 35.6051 107.054C35.5199 108.828 35.1788 110.645 35.2606 112.422C35.3309 113.957 34.5587 115.208 34.3437 116.638C34.0835 118.369 32.8837 119.88 32.6472 121.679C32.5013 122.783 31.3348 123.623 31.3449 124.498C31.3678 126.521 29.5759 127.61 29.2595 129.434C29.1588 130.014 28.921 130.883 28.4165 131.435C27.3797 132.568 27.0764 134.136 26.0027 135.265C24.6508 136.687 23.9489 138.59 22.5073 140C21.6414 140.848 20.9646 141.942 20.2069 142.917C19.5203 143.8 19.5819 145.169 19.3551 146.336C19.0263 148.025 19.9954 149.34 20.4328 150.824C21.4779 154.369 23.6561 157.3 26.2062 159.664C31.1863 164.283 37.1509 165.8 43.7827 163.383C44.456 163.138 45.1285 162.891 45.8075 162.663C49.7895 161.326 53.2295 159.116 56.4248 156.403C60.6063 152.854 62.5863 147.904 64.903 143.219C65.7134 141.58 66.0286 139.571 66.6404 137.752C67.0592 136.506 67.5101 135.263 67.7985 133.984C68.089 132.695 68.485 131.442 68.8709 130.186C69.2559 128.931 69.7982 127.72 70.1033 126.449C70.3749 125.318 70.9309 124.308 71.1651 123.136C71.4781 121.57 71.9892 120.01 72.4147 118.446C73.9442 112.824 75.0882 107.128 75.7774 101.339C76.1593 98.1304 76.4375 94.8916 77.102 91.7377C79.2486 81.5441 83.9426 72.5376 90.4078 64.4431C93.2976 60.8255 96.3632 57.3472 99.3884 53.8395C103.72 48.8172 106.071 42.8394 107.841 36.5685C108.943 32.6695 108.752 28.8177 107.321 25.055C106.505 22.9106 105.289 21.1201 102.724 20.6968C100.336 20.3026 98.0057 20.8682 95.7474 21.2858C94.4047 21.5345 92.942 22.1731 91.5945 22.8249C88.3619 24.3892 85.0831 25.8663 82.2725 28.143C81.6031 28.6845 80.7698 28.757 80.1008 29.2981C79.2447 29.9903 78.6465 30.9251 77.7125 31.547C77.1763 31.9035 76.5338 31.9382 76.0393 32.3953C72.9038 35.2917 69.3596 37.7279 66.5296 40.975C65.5473 42.1028 64.3338 43.0262 63.2636 44.081C59.2451 48.0397 54.5687 51.0016 49.3008 52.9367C42.8426 55.3092 36.8155 58.4895 31.1775 62.3752C29.0217 63.8608 26.7125 65.262 25.1667 67.5206C24.2706 68.8308 23.1182 70.1665 22.9784 71.6674C22.771 73.8874 22.5451 76.2058 23.301 78.4174C23.4834 78.951 23.1582 79.6946 23.2716 79.877C23.7089 80.5772 23.9726 81.3692 24.4464 82.0407C25.4696 83.4925 26.8804 84.7332 27.0518 86.6851ZM25.8259 129.498C26.1661 129.37 26.2505 129.03 26.3679 128.758C27.4851 126.171 28.6929 123.616 29.4405 120.887C29.8778 119.29 30.6452 117.769 30.6201 116.057C29.8479 119.085 28.5021 121.908 27.5462 124.868C27.039 126.439 26.0901 127.851 25.8514 129.522C24.4859 131.323 23.8156 133.486 22.7116 135.423C23.8793 133.516 25.2519 131.713 25.8259 129.498ZM76.515 122.301C76.4675 122.009 76.5132 121.751 76.2227 121.604C76.1713 122.053 75.8104 122.481 76.4038 122.874C76.7488 123.102 76.4244 123.473 76.3361 123.749C75.541 126.231 74.7679 128.724 74.0001 131.21C73.2696 133.577 72.3972 135.912 71.8495 138.336C71.5749 139.553 70.9846 140.647 70.5376 141.796C70.3319 142.323 70.1587 142.826 70.1587 143.4C70.1583 144.565 70.0774 144.596 68.9998 143.983C68.9097 143.932 68.7734 143.963 68.6279 143.953C68.6279 144.083 68.5879 144.211 68.6336 144.288C69.321 145.429 69.1756 146.797 68.3682 147.897C67.8355 148.622 67.3507 149.355 67.1204 150.308C66.7745 151.742 65.7913 152.871 64.6495 153.814C64.5457 153.9 64.3097 153.86 64.2987 154.06C64.2346 155.242 63.283 155.809 62.5653 156.513C61.8801 157.185 61.0354 157.676 60.3915 158.414C59.2896 159.678 58.0502 160.725 56.54 161.566C55.843 161.955 55.1349 162.693 54.3587 162.997C51.4909 164.121 48.6789 165.379 45.7742 166.427C40.8662 168.198 36.0342 167.678 31.1631 166.496C28.2975 165.801 25.707 164.519 23.3389 162.758C22.4335 162.085 21.7009 161.265 20.9568 160.433C18.1136 157.256 16.1204 153.619 15.1192 149.484C14.4779 146.836 14.8823 144.247 16.2087 141.863C16.5577 141.235 16.8262 140.413 18.0037 140.555C18.5166 140.617 19.0255 139.663 19.4233 139.057C22.2357 134.776 24.5225 130.228 26.3641 125.451C28.3028 120.422 29.9944 115.34 30.6475 109.942C31.1218 106.023 30.5922 102.265 29.6371 98.4833C28.8724 95.4546 27.2919 92.9226 25.4872 90.4569C24.1349 88.6097 22.9253 86.6587 21.5901 84.7982C21.1167 84.1389 21.714 83.7183 21.8542 82.8705C21.1233 83.8643 21.0033 83.6647 20.6922 82.8472C20.381 82.0302 19.8105 81.2672 19.36 80.4752C18.3966 78.7795 17.8459 76.931 17.8274 75.0261C17.8204 74.3036 17.4429 73.7006 17.5404 73.0167C17.6631 72.1544 17.7233 71.2701 17.9672 70.4407C18.3979 68.974 18.6682 67.4278 20.1019 66.4319C20.4979 66.1568 20.2628 65.3032 20.7128 64.8202C22.6388 62.7523 24.4522 60.5486 26.8607 59.0152C32.5911 55.3663 38.593 52.2585 44.8802 49.6399C49.2578 47.8164 53.4371 45.5129 56.8873 42.1252C61.9645 37.1402 67.305 32.448 72.7993 27.9329C78.008 23.6529 83.5889 19.9799 89.9891 17.6817C92.6762 16.717 95.4315 16.1443 98.2791 15.9479C102.344 15.6675 105.387 17.5174 107.749 20.59C112.284 26.4913 113.348 33.1328 111.603 40.2748C110.43 45.0782 108.703 49.6843 106.266 53.9959C105.122 56.0194 104.032 58.0676 102.145 59.6072C101.245 60.3416 100.763 61.5819 100.071 62.5787C97.7051 65.9867 94.7288 68.909 92.3738 72.3376C91.3252 73.864 90.4387 75.4744 89.4502 77.0285C87.2931 80.4202 85.8203 84.1636 84.1985 87.8137C82.7754 91.0164 82.2607 94.5163 81.7478 97.9849C81.1958 101.722 80.6112 105.456 79.9748 109.179C79.6074 111.33 79.3511 113.551 78.5859 115.566C78.0546 116.966 78.0348 118.458 77.3988 119.815C77.0336 120.593 77.4261 121.66 76.515 122.301Z" fill="#FF6D88"/>
<path fill-rule="evenodd" clip-rule="evenodd" d="M63.2764 106.972C63.396 107.035 63.516 107.098 63.6355 107.161C64.0196 106.142 65.1114 105.417 64.609 104.025C64.1647 105.007 63.7208 105.99 63.2764 106.972ZM40.3885 68.6414C37.896 69.1095 35.3398 71.4564 35.5996 73.0466C36.8065 71.0758 38.5557 69.8131 40.3885 68.6414ZM61.506 53.577C61.4331 53.4799 61.3597 53.3832 61.2867 53.287C57.9658 56.1653 54.6444 59.0441 51.3239 61.9229C51.3942 62.0051 51.465 62.0873 51.5357 62.1699L61.506 53.577ZM71.0966 44.418C74.2184 42.1128 77.4268 39.9412 80.8752 38.1348C84.361 36.3086 87.8872 34.5721 91.4631 32.9525C84.198 35.9197 77.019 39.0468 71.0966 44.418ZM48.6634 137.636C49.5033 136.267 50.5225 135.06 51.2077 133.563C52.7587 130.176 54.559 126.902 56.0348 123.473C58.2346 118.364 60.5495 113.309 63.2635 108.447C63.4331 108.142 63.5909 107.836 63.1404 107.394C57.7423 117.286 53.9045 127.8 48.6634 137.636ZM71.4116 49.6952C70.0043 50.3251 69.3085 51.6862 68.2985 52.7248C66.9721 53.4957 66.2385 54.8841 65.058 55.8154C63.0226 57.421 60.9332 58.9751 59.0292 60.7279C55.089 64.356 50.7383 67.3192 45.9138 69.6513C44.1227 70.5175 42.0333 70.7026 40.5029 72.2004C39.5668 73.1164 38.4289 73.8569 38.3445 75.2915C38.2192 77.417 38.5515 79.4708 39.5756 81.3814C41.469 84.9133 44.0195 88.0009 46.2487 91.3055C48.5653 94.7399 50.6354 98.2344 51.1628 102.511C51.6665 106.602 51.3633 110.657 51.1228 114.719C51.0741 115.542 50.5172 116.326 50.4869 117.279C50.4451 118.61 50.4315 120.09 49.5863 121.18C48.0616 123.148 47.5562 125.549 46.5581 127.733C46.2311 128.45 46.4315 129.505 45.8026 130.053C44.9631 130.785 44.7372 131.749 44.3355 132.668C44.179 133.027 43.9614 133.388 43.6859 133.662C42.7765 134.566 42.2038 135.76 41.5705 136.791C40.3271 138.817 38.9431 140.61 37.1965 142.2C36.6932 142.658 35.8982 142.602 35.5958 143.317C35.2934 144.03 34.7374 144.558 34.1546 145.05C33.5595 145.552 33.2554 146.209 33.0189 146.978C33.4554 147.103 33.7371 146.925 34.0245 146.82C35.8327 146.157 37.3789 144.989 39.1251 144.195C42.188 142.802 44.7719 140.78 46.8178 138.078C48.3486 136.057 49.3877 133.769 50.4834 131.512C52.6545 127.04 54.8609 122.582 56.8971 118.049C58.0377 115.509 59.2239 112.995 60.4862 110.518C62.5835 106.405 64.4523 102.185 66.2737 97.9496C67.7324 94.5575 68.9398 91.0603 69.73 87.4343C70.4192 84.2685 71.6208 81.268 72.7956 78.2622C75.0323 72.5388 77.3076 66.8384 80.9951 61.8332C84.3082 57.3361 87.6638 52.8694 90.6578 48.1446C92.8923 44.618 94.8318 40.9679 95.7838 36.8677C95.8858 36.4277 96.2119 35.8506 95.8379 35.5272C95.521 35.2529 95.0041 35.6133 94.6037 35.7715C90.4055 37.4329 86.3642 39.4111 82.4539 41.6742C81.7476 42.0829 81.1199 43.0072 80.0392 42.5554C79.8867 42.4916 79.568 42.7057 79.6608 42.889C79.9882 43.5368 79.3527 43.5289 79.1092 43.6898C77.5713 44.7063 76.0532 45.7475 74.5532 46.8204C73.3797 47.6594 72.5644 48.8553 71.4116 49.6952ZM40.4229 132.586C40.7617 132.563 40.8589 132.288 40.9832 132.044C42.5567 128.956 43.7236 125.689 45.1524 122.538C45.8376 121.026 45.6034 119.211 46.7545 117.867C46.9514 117.636 46.8894 117.41 46.6147 117.292C46.2543 117.137 46.0605 117.377 46.02 117.672C45.8636 118.82 45.3151 119.828 44.934 120.897C43.9521 123.651 43.1109 126.445 41.7972 129.087C41.2513 130.185 40.6461 131.342 40.4505 132.613C39.4797 133.899 38.7866 135.331 38.2446 136.842C38.9246 135.4 40.2286 134.278 40.4229 132.586ZM83.0652 65.6403C83.4916 66.362 83.347 66.8152 83.0604 67.514C82.362 69.218 80.9358 70.5567 80.6664 72.4576C80.5706 73.1362 80.0436 73.6487 79.721 74.2196C78.8995 75.6726 78.7418 77.3634 78.0029 78.7791C77.3019 80.1222 77.0013 81.5933 76.2867 82.9065C75.9069 83.6036 76.0405 84.4717 75.5461 85.1476C75.2125 85.603 74.388 88.4374 74.2921 88.9828C74.0517 90.3567 73.7722 91.724 73.4949 93.0914C73.4474 93.326 73.3419 93.5673 73.0224 93.5168C72.6928 93.4649 72.5332 93.6148 72.6598 93.9075C73.1336 95.0045 72.5679 95.9873 72.1465 96.8487C70.9207 99.3522 69.8562 101.926 68.7798 104.488C68.5666 104.996 67.5764 104.858 67.9293 105.871C68.1073 106.382 67.532 107.267 67.1338 107.928C66.7462 108.574 66.4855 109.293 66.1344 109.962C63.5479 114.893 61.171 119.922 58.9189 125.016C57.6698 127.841 56.179 130.558 54.8631 133.355C54.5308 134.062 54.3133 134.855 54.09 135.611C53.8848 136.305 53.5837 137.301 52.7354 137.738C52.5781 137.819 52.4801 137.89 52.4287 138.052C51.3914 141.318 48.6049 143.026 46.1199 144.94C44.3408 146.31 42.1709 147.119 40.1522 148.065C38.9031 148.651 37.7542 149.583 36.299 149.788C34.8403 149.995 33.3912 150.258 31.9123 150.288C30.4777 150.317 29.1512 149.981 27.9632 149.157C27.3409 148.725 27.2464 148.177 27.518 147.484C28.1909 145.765 29.2057 144.326 30.7686 143.304C31.3673 142.912 32.0072 142.572 32.4058 141.933C32.6902 141.476 33.1719 142.051 33.7002 141.531C35.5694 139.693 36.7337 137.457 37.9327 135.21C40.4159 130.555 42.2645 125.633 44.0445 120.684C44.8146 118.543 45.2154 116.31 45.5657 114.065C45.7872 112.647 45.9362 111.229 46.0311 109.8C46.0746 109.137 46.3414 108.592 47.155 108.996C47.6402 109.237 47.7896 108.884 48.0173 108.634C48.179 108.457 48.1461 108.254 47.9905 108.104C47.7065 107.833 47.46 108.116 47.238 108.224C46.3274 108.667 46.0298 108.403 46.076 107.407C46.2043 104.662 46.2737 101.917 45.5608 99.2195C45.2062 97.875 44.7082 96.585 44.059 95.3667C42.1617 91.8036 39.7109 88.5921 37.5437 85.1995C35.9584 82.7162 34.3278 80.2334 33.9947 77.2026C33.9169 76.4972 33.3569 75.6375 34.3326 75.0648C34.3867 75.0336 34.4342 74.9334 34.4298 74.8692C34.2408 72.0968 34.3265 72.0273 36.2107 70.0842C37.4334 68.8233 38.9247 67.946 40.4441 67.2476C46.0346 64.6769 50.7458 60.9367 55.3576 56.9341C60.9714 52.0612 66.086 46.6244 71.9183 42.0276C78.308 36.9925 85.6166 33.5424 93.3744 31.1589C97.4693 29.901 100.503 32.957 99.6106 37.2066C98.7193 41.4496 97.1103 45.4211 94.9729 49.1995C92.5191 53.5366 89.7076 57.6456 86.987 61.8087C86.2407 62.951 85.6078 64.19 84.6976 65.2439C84.2255 65.7902 83.8753 66.2702 83.0652 65.6403Z" fill="#FF6D88"/>
<path fill-rule="evenodd" clip-rule="evenodd" d="M71.4114 49.6953C70.706 51.0459 69.5958 51.9821 68.2983 52.7249C69.3083 51.6863 70.0041 50.3251 71.4114 49.6953Z" fill="#FF6D88"/>
</svg>
