<svg width="111" height="123" viewBox="0 0 111 123" fill="none" xmlns="http://www.w3.org/2000/svg">
<path fill-rule="evenodd" clip-rule="evenodd" d="M58.3866 102.081C57.7437 102.721 57.1623 103.113 57.5861 103.89C58.0299 104.704 58.6329 104.338 59.2401 104.149C59.54 104.056 59.9058 103.867 60.1752 104.211C60.4547 104.566 60.3214 104.908 60.0801 105.24C59.9324 105.443 59.6756 105.652 59.8373 105.936C60.0253 106.265 60.3586 106.137 60.6521 106.105C63.1322 105.833 65.5245 105.191 67.8438 104.299C69.2787 103.747 70.6965 103.116 71.91 102.139C73.5908 100.786 73.2842 98.7941 71.2811 97.9943C70.0973 97.5215 68.8534 97.4334 67.6224 97.6779C64.0823 98.3812 61.027 100.109 58.3866 102.081ZM55.3455 100.315C59.508 96.6027 64.2299 93.931 69.7024 92.6719C71.1516 92.3386 72.6152 92.4531 74.065 92.7003C74.96 92.8526 75.3712 93.6504 75.9775 94.1934C76.1635 94.3601 76.1743 95.3785 76.8154 94.5054C76.8556 94.4512 77.1121 94.7909 77.1892 94.9974C77.6988 96.3681 77.8768 97.7382 77.3833 99.1748C75.9749 103.274 73.0856 105.875 69.1407 107.42C65.6806 108.775 62.1375 109.635 58.3693 109.387C56.4641 109.261 55.009 108.178 53.5384 107.23C52.2954 106.43 52.2322 104.434 53.1173 103.018C53.7385 102.024 54.5331 101.169 55.3455 100.315Z" fill="white"/>
<path fill-rule="evenodd" clip-rule="evenodd" d="M2.90697 55.0747C5.46473 53.7143 7.18104 51.8691 7.96421 49.2589C8.54412 47.3265 7.69681 46.3632 5.66653 46.55C4.18278 46.6865 2.8276 47.2468 1.51899 47.9286C-0.445967 48.9523 -0.940063 50.5172 -0.0157201 52.5146C0.35595 53.318 0.834524 53.5183 1.5392 53.0386C2.14899 52.6233 2.81735 52.3386 3.35714 52.9264C3.96019 53.584 3.28802 54.1606 2.96584 54.7265C2.94856 54.7567 2.95208 54.7994 2.90697 55.0747ZM9.38635 53.4419C6.285 56.6341 2.91331 58.3229 -0.999914 58.954C-1.85836 59.0931 -2.72735 59.1538 -3.58169 58.9426C-4.78164 58.6465 -5.36126 57.576 -4.77109 56.5284C-4.43896 55.9397 -4.56637 55.6172 -4.89996 55.1454C-6.40188 53.0214 -6.45577 50.3274 -4.70695 48.465C-1.08339 44.6053 3.46042 42.3894 8.75899 42.201C12.6075 42.0646 14.1683 44.5737 12.8453 48.2309C12.0601 50.4009 10.6619 52.1635 9.38635 53.4419Z" fill="white"/>
<path fill-rule="evenodd" clip-rule="evenodd" d="M33.8226 65.0655C34.4221 64.3915 35.0117 63.512 34.6591 62.5133C34.3354 61.5963 33.3021 61.6501 32.4979 61.6636C29.1883 61.7181 26.1478 62.7347 23.3265 64.4249C22.594 64.8634 22.6716 65.515 23.0116 66.2001C23.3332 66.8486 23.7386 67.0788 24.4579 66.7548C24.918 66.5478 25.5012 66.3231 25.903 66.8573C26.253 67.3227 25.7419 67.668 25.5878 68.0558C25.5099 68.2526 25.2528 68.4137 25.4209 68.648C25.57 68.8557 25.8485 68.829 26.0471 68.7658C28.7689 67.8991 31.4821 67.0093 33.8226 65.0655ZM19.5238 62.9661C22.5309 60.2279 26.2115 58.721 29.9549 57.3365C32.1741 56.5162 34.407 56.0552 36.7832 56.7713C38.8741 57.4013 39.8913 58.9111 39.2645 61.0456C38.2778 64.4041 36.4394 67.1728 33.2674 68.8791C30.4994 70.3684 27.5726 71.3417 24.4112 71.5485C23.9276 71.5798 23.3761 71.5561 23.1723 71.1958C22.7289 70.4127 22.0593 70.6142 21.5031 70.7392C19.9954 71.0796 18.9257 70.4522 18.1177 69.3097C17.225 68.0473 16.8823 66.6614 17.6318 65.1762C18.0808 64.2861 18.7269 63.565 19.5238 62.9661Z" fill="white"/>
<path fill-rule="evenodd" clip-rule="evenodd" d="M23.9565 37.2651C24.4295 37.2666 24.687 37.0314 24.9643 36.8448C25.2786 36.6336 25.6157 36.6738 25.703 37.0141C25.9174 37.8535 26.5488 37.7311 27.1352 37.7246C28.717 37.7079 30.3039 37.5322 31.8008 37.0832C33.4234 36.597 35.1139 36.1097 36.2541 34.6619C36.9632 33.7619 37.7725 32.8039 37.1468 31.6458C36.5057 30.4593 35.2173 30.3665 33.9799 30.406C33.9055 30.4084 33.8323 30.4347 33.7576 30.4415C30.8744 30.7127 28.3791 32.0418 25.9859 33.4995C24.6949 34.2862 23.9266 35.6121 23.9565 37.2651ZM21.3345 32.9799C23.8697 30.5572 26.959 29.1121 30.1506 27.7721C32.3531 26.8472 34.591 26.3197 36.9464 26.1481C39.008 25.9984 41.4079 27.515 41.9626 29.6489C42.1703 30.4482 41.6053 31.1918 41.9325 31.9642C40.599 32.0195 41.2738 33.2742 40.8028 33.86C38.8932 36.2377 36.7657 38.2316 33.7475 39.2377C30.7926 40.2232 27.8453 40.5937 24.7829 40.1497C24.442 40.1005 24.23 40.2106 23.9816 40.4157C23.638 40.6989 23.2693 40.985 22.8631 41.1528C20.5264 42.1194 19.1112 41.2425 18.9601 38.7196C18.8233 36.4348 19.6885 34.538 21.3345 32.9799Z" fill="white"/>
<path fill-rule="evenodd" clip-rule="evenodd" d="M68.647 77.2434C69.0219 76.8041 69.5543 76.4022 69.3429 75.7837C69.1458 75.2076 68.4926 75.2415 67.983 75.1742C67.2692 75.0802 66.5499 75.1364 65.8514 75.2966C63.0734 75.9342 60.5221 77.075 58.2153 78.7632C57.6304 79.1917 56.9922 79.8094 57.3952 80.4033C57.8211 81.0307 58.454 81.9096 59.5646 81.4434C59.8739 81.3133 60.2049 81.2067 60.5361 81.1607C63.6656 80.7217 66.1115 78.8938 68.647 77.2434ZM55.7837 77.0654C58.7131 74.4856 62.2965 72.526 66.358 71.4449C66.865 71.3105 67.3883 71.2387 67.8956 71.1052C69.947 70.5657 71.6524 71.2466 73.1157 72.6396C73.6209 73.1208 73.5052 73.7865 73.3166 74.4203C72.6339 76.7139 71.2506 78.5078 69.2892 79.8115C65.4026 82.3941 61.1748 84.1962 56.5868 85.1261C55.7664 85.2928 54.9416 85.2776 54.1239 85.2348C53.2001 85.1862 52.9518 84.6069 53.4303 83.7991C53.5947 83.5223 53.8667 83.2824 53.6436 82.8906C52.7538 81.3271 53.7007 80.0528 54.3717 78.7732C54.6613 78.2217 55.1745 77.7876 55.7837 77.0654Z" fill="white"/>
<path fill-rule="evenodd" clip-rule="evenodd" d="M69.8012 52.7257C68.5676 52.653 67.6424 53.1319 66.6507 53.4254C64.8272 53.966 63.2816 54.9311 61.8023 56.0572C61.5562 56.2447 61.3363 56.4886 61.5167 56.8219C61.693 57.1476 62.0325 57.0694 62.3113 57.0144C62.5644 56.964 62.8485 56.6951 63.0368 56.7604C63.6738 56.9804 64.4359 55.6372 64.9766 56.9294C65.046 57.0943 65.3664 56.9918 65.3304 56.749C65.1719 55.6902 66.0532 55.5851 66.6741 55.2963C67.8919 54.7293 69.0154 54.0732 69.8012 52.7257ZM74.0096 49.7834C72.7271 49.318 72.6617 50.1003 72.9751 50.7991C73.6906 52.3968 72.6983 53.5338 71.9869 54.6693C71.5321 55.3953 70.7269 55.972 69.9652 56.424C66.5176 58.4698 62.752 59.7107 58.8575 60.568C58.2164 60.7094 57.5214 60.5246 56.8521 60.693C56.563 60.7654 56.2365 60.6725 56.0807 60.3574C55.9269 60.0461 56.0233 59.8138 56.3044 59.5842C56.8284 59.1557 56.9804 58.589 56.9748 57.8939C56.9584 55.9808 58.323 54.7967 59.5883 53.7353C62.8188 51.0243 66.5738 49.2726 70.6982 48.3916C71.9544 48.123 73.2285 48.2267 74.0096 49.7834Z" fill="white"/>
<path fill-rule="evenodd" clip-rule="evenodd" d="M36.7464 90.6646C36.592 90.9438 36.4374 91.2232 36.2119 91.6303C37.7861 91.4455 39.1656 91.0015 40.4417 90.2924C41.287 89.8226 41.3432 88.7413 40.6198 88.0905C39.8911 87.4344 38.9946 87.3064 38.0775 87.4813C35.6583 87.9429 33.5618 89.1671 31.6323 90.5941C31.0574 91.0196 30.4403 91.7562 30.1992 92.6193C29.9916 93.3647 28.2466 94.022 27.5044 93.6412C26.5751 93.1647 26.7496 92.323 27.0229 91.5711C27.5606 90.0897 28.8212 89.1589 29.957 88.2164C32.5259 86.0857 35.4542 84.5715 38.7078 83.7435C40.1561 83.3747 41.6106 83.1592 42.9257 84.1439C45.1656 85.8221 45.7631 86.8314 44.304 89.3086C42.3815 92.5731 37.3608 94.7486 33.5941 94.0929C33.1767 94.0205 32.7836 93.9186 32.5886 93.4769C32.3657 92.9734 32.752 92.6926 33.0127 92.4073C33.9833 91.3453 35.3048 90.9341 36.5745 90.4347C36.6319 90.5115 36.689 90.5879 36.7464 90.6646Z" fill="white"/>
<path fill-rule="evenodd" clip-rule="evenodd" d="M71.4308 28.8751C72.112 29.448 72.3247 30.1526 71.7538 30.7791C70.7449 31.8853 69.9945 33.1067 68.5286 33.9563C66.0622 35.3859 63.5132 36.3422 60.7888 36.8764C59.5863 37.1119 58.9841 38.1083 57.9602 38.5218C57.1073 38.8663 56.2617 39.1132 55.3435 39.09C54.7487 39.0751 54.2068 38.9679 54.022 38.2834C53.8484 37.6411 53.9356 37.2129 54.4745 36.623C57.8462 32.9327 62.3309 31.1215 66.7139 29.1196C67.6833 28.6774 68.7117 28.4902 69.7546 28.3242C70.4543 28.2132 71.0164 28.3628 71.4308 28.8751Z" fill="white"/>
</svg>
