<svg width="28" height="33" viewBox="0 0 28 33" fill="none" xmlns="http://www.w3.org/2000/svg">
<path fill-rule="evenodd" clip-rule="evenodd" d="M8.25832 26.2763C8.23015 26.5729 8.24962 26.7311 8.19743 26.8607C7.54879 28.477 6.08128 29.3033 4.81962 30.3255C4.7695 30.3661 4.61873 30.3119 4.53051 30.2696C4.3611 30.1868 4.34784 30.0244 4.44394 29.8944C5.47199 28.5055 6.18773 26.7883 8.25832 26.2763ZM18.282 8.1024C18.0844 6.8656 19.081 6.0985 19.4803 5.11311C19.6542 4.68442 20.4246 4.3543 19.7768 3.88708C19.1974 3.46874 18.4373 3.68164 17.9746 4.24081C17.7228 4.54442 17.5708 4.853 17.075 4.80702C17.01 4.06643 17.3799 3.44678 17.891 3.07027C18.7629 2.42785 18.3959 1.71998 17.9254 1.30743C17.6354 1.05311 16.8356 1.04359 16.3526 1.54891C16.1509 1.75974 16.0581 2.44193 15.4911 1.71128C15.2699 1.42589 14.8288 2.2456 14.437 2.50033C14.2381 2.62956 14.171 2.94684 13.9933 3.12909C13.8128 3.31382 13.5903 3.27903 13.4064 3.07524C13.1339 2.77329 13.4304 2.71655 13.6036 2.61589C14.5923 2.03767 15.1991 1.08998 16.0304 0.170453C14.9183 -0.375049 14.4191 0.524178 13.8144 0.970688C12.6136 1.85749 11.6038 2.94933 10.6851 4.12566C10.5812 4.25903 10.401 4.36879 10.1313 4.27229C10.3306 3.3743 11.0695 2.81595 11.6833 2.00826C10.4942 1.93122 10.2121 2.8843 9.7511 3.40246C8.38465 4.93915 7.1524 6.59678 5.90151 8.23288C5.49725 8.76181 5.03045 8.86039 4.42116 8.76637C2.67364 8.49672 0.9253 8.22501 -0.830085 8.01625C-1.88381 7.89116 -2.94872 7.83483 -3.546 9.05175C-3.69346 9.35246 -4.26588 9.48128 -3.55926 9.82424C-3.19476 10.0011 -3.58038 10.2807 -3.70588 10.4584C-4.08239 10.9902 -4.21659 11.3377 -3.37204 11.5597C-2.64594 11.7503 -1.88547 12.0936 -2.69109 13.0732C-2.79133 13.195 -2.83151 13.4787 -2.75985 13.6125C-2.15801 14.7371 -2.45127 16.2709 -1.17636 17.0839C-0.707066 17.383 -0.649493 17.7736 -0.93612 18.2329C-1.54872 19.215 -0.972155 20.2136 -0.950617 21.2019C-0.944405 21.4935 -0.564168 21.3353 -0.381505 21.2682C0.129205 21.0806 0.623764 20.8503 1.32086 20.5537C0.837905 21.6928 1.0156 22.7929 0.230686 23.6884C-0.042273 23.9994 0.158199 24.7558 0.206247 25.3029C0.224472 25.5129 0.407135 25.7242 0.69169 25.4897C1.21317 25.0594 1.9608 25.0751 2.43175 24.5027C2.78589 25.0884 2.69104 25.4972 2.22962 25.8431C2.11033 25.9329 2.00512 26.0423 1.89329 26.1421C0.331337 27.54 0.293644 28.3096 1.71435 29.8658C1.81252 29.9739 1.93885 30.171 2.02666 30.1578C3.19595 29.9793 4.00861 30.823 4.74755 31.3892C5.65134 32.0813 6.62222 32.4993 7.63329 32.8526C8.30223 33.0858 8.89495 32.602 9.37004 32.1331C11.2294 30.2961 12.7561 28.2164 13.7784 25.8016C14.2029 24.7993 14.6167 24.4199 15.8303 24.8912C18.067 25.7606 20.4077 26.3906 22.8651 26.1984C25.7409 25.9735 27.9826 22.9963 27.4068 20.1809C27.348 19.8931 27.3306 19.5261 27.0162 19.4151C26.658 19.2879 26.5204 19.6752 26.3142 19.8674C25.7736 20.371 25.3135 21.0064 24.3007 20.9435C24.5302 20.2667 25.1188 20.0587 25.5475 19.7137C26.6174 18.8534 26.4273 17.1328 25.1391 16.6499C24.6611 16.4701 24.77 16.1549 24.6818 15.8728C24.3596 14.8381 23.4595 14.3341 22.651 14.7574C22.4049 14.1605 22.5793 12.8897 21.3102 13.917C21.2328 13.9799 21.099 13.9729 20.9913 13.9977C20.8401 12.7191 19.9264 13.7024 19.4219 13.4696C18.8163 13.1905 19.1613 12.7825 19.2943 12.4267C19.9081 10.7823 20.7573 9.234 21.2812 7.54862C21.4138 7.12199 21.5529 6.63365 21.2485 6.38927C20.7684 6.00447 20.6218 6.69909 20.3041 6.88092C19.6393 7.26116 19.3104 8.15294 18.282 8.1024Z" fill="#82CEF9"/>
</svg>
