<svg width="10" height="10" viewBox="0 0 10 10" fill="none" xmlns="http://www.w3.org/2000/svg">
<g clip-path="url(#clip0_107_274)">
<path d="M5.47756 5.00027L2.11519 1.62215C1.93744 1.43909 1.83965 1.19292 1.84333 0.937781C1.84911 0.690682 1.94851 0.455001 2.12144 0.278408C2.20875 0.189115 2.31302 0.118166 2.42812 0.069728C2.54322 0.0212896 2.66685 -0.00366211 2.79173 -0.00366211C2.91661 -0.00366211 3.04023 0.0212896 3.15533 0.069728C3.27044 0.118166 3.37471 0.189115 3.46201 0.278408L8.16495 5.00027L6.82126 6.35026L3.46201 9.71588C3.37307 9.80607 3.26676 9.87729 3.14953 9.92525C3.03488 9.9741 2.91165 9.99959 2.78704 10.0003C2.66169 9.99995 2.53757 9.97554 2.42143 9.92838C2.30511 9.88088 2.19953 9.81048 2.11095 9.72136C2.02238 9.63225 1.95262 9.52624 1.90582 9.40963C1.85743 9.29326 1.83252 9.16847 1.83252 9.04244C1.83252 8.91641 1.85743 8.79163 1.90582 8.67526C1.95374 8.55874 2.02378 8.45262 2.11207 8.36276L5.47756 5.00027Z" fill="#FB086A"/>
</g>
<defs>
<clipPath id="clip0_107_274">
<rect width="9.99961" height="9.99997" fill="white" transform="translate(0.000488281)"/>
</clipPath>
</defs>
</svg>
