<svg width="144" height="32" viewBox="0 0 144 32" fill="none" xmlns="http://www.w3.org/2000/svg">
<rect y="0.557617" width="30.8847" height="30.8847" rx="15.4424" fill="#0496FF"/>
<g clip-path="url(#clip0_107_2192)">
<g clip-path="url(#clip1_107_2192)">
<g clip-path="url(#clip2_107_2192)">
<path opacity="0.21" d="M19.5555 24.6915C20.063 24.7284 20.5853 24.4627 20.8409 24.0235C21.1002 23.5843 21.0816 23.0011 20.7927 22.5803C20.3112 21.8864 19.011 21.7942 18.5109 22.536C17.9479 23.3739 18.5665 24.6177 19.5555 24.6915Z" stroke="#27131F" stroke-width="0.949589" stroke-miterlimit="10"/>
<path opacity="0.21" d="M12.4968 9.72859C12.056 9.72859 11.6189 9.75071 11.1892 9.83561C10.8299 9.90573 10.4928 10.0349 10.2891 10.3597C10.2039 10.4963 10.1446 10.6624 10.1187 10.8211C10.0224 11.4227 10.2002 11.9468 10.6114 12.4008C10.9077 12.7256 11.2522 12.9802 11.6523 13.1611C11.7597 13.2091 11.8597 13.2644 11.9671 13.3161C12.1042 13.3826 12.1709 13.5007 12.1449 13.652C12.1042 13.866 12.056 14.0801 11.9338 14.2684C11.7486 14.5525 11.4856 14.7371 11.1744 14.8626C10.8114 15.0065 10.4595 15.0028 10.0965 14.8478C9.74829 14.6965 9.41491 14.5193 9.11116 14.2905C8.72222 13.9952 8.39624 13.6409 8.15547 13.2128C7.8332 12.6481 7.69615 12.0354 7.72208 11.3895C7.73689 11.0278 7.80727 10.6771 7.9184 10.3339C8.01471 10.0386 8.14436 9.76548 8.30364 9.49974C8.67777 8.8686 9.18524 8.37403 9.81497 8.00494C10.4002 7.66538 11.0262 7.48453 11.6967 7.47714C12.6783 7.46976 13.66 7.46976 14.6416 7.47714C15.212 7.48083 15.7825 7.51036 16.3529 7.52882C16.916 7.54727 17.4827 7.57311 18.0457 7.58049C19.0311 7.59156 20.0164 7.60263 20.998 7.59156C21.4425 7.58418 21.8907 7.52881 22.3353 7.48453C22.4649 7.47345 22.5908 7.43654 22.7168 7.41071C22.9427 7.36642 23.0539 7.41809 23.1502 7.62109C23.4132 8.16734 23.3687 8.70251 23.0687 9.21555C22.7761 9.71382 22.3278 10.0202 21.8018 10.2268C21.3351 10.4114 20.8462 10.4631 20.3535 10.4963C19.7719 10.5369 19.1941 10.5 18.6162 10.4298C18.4162 10.404 18.3754 10.4483 18.3569 10.6476C18.3199 11.013 18.2717 11.3784 18.231 11.7475C18.1865 12.1092 18.1458 12.4746 18.105 12.8363C18.0939 12.9249 18.0939 13.0135 18.0754 13.102C18.0569 13.1943 18.0939 13.2202 18.1791 13.2312C18.4162 13.2644 18.6532 13.2497 18.8903 13.2275C19.3904 13.1832 19.8645 13.043 20.335 12.8843C20.4905 12.8326 20.6461 12.7809 20.8054 12.7477C20.861 12.7366 20.9387 12.7699 20.9869 12.8068C21.2314 13.0024 21.3351 13.2644 21.3462 13.5708C21.361 13.9694 21.287 14.3422 21.061 14.678C20.8943 14.929 20.6683 15.1173 20.4016 15.2575C19.8979 15.5196 19.3533 15.6118 18.7903 15.6118C18.5717 15.6118 18.3532 15.6008 18.1347 15.5934C17.9902 15.5897 17.9717 15.6082 17.9605 15.7521C17.942 15.9662 17.9272 16.1802 17.9013 16.3943C17.8235 17.0919 17.7494 17.7858 17.6568 18.4833C17.579 19.0886 17.4605 19.6903 17.2827 20.2771C17.1938 20.5687 17.1086 20.8603 17.0012 21.1445C16.8419 21.5763 16.6233 21.9786 16.3714 22.3624C16.0195 22.8976 15.5898 23.3664 15.075 23.7539C14.5638 24.1341 14.0044 24.422 13.371 24.5438C12.9598 24.6213 12.545 24.636 12.1375 24.5438C11.5152 24.3961 10.9781 24.0972 10.5966 23.5657C10.3854 23.2704 10.2373 22.9456 10.1483 22.5913C10.0002 22.0044 10.0002 21.4176 10.1224 20.8271C10.2298 20.3103 10.4187 19.8231 10.6706 19.3544C10.9447 18.845 11.2781 18.38 11.6523 17.9408C12.019 17.5089 12.419 17.1066 12.8561 16.7449C13.2414 16.4312 13.6377 16.1286 14.0304 15.8185C14.1971 15.6893 14.3637 15.5602 14.5267 15.4236C14.6119 15.3535 14.6082 15.3387 14.5341 15.2575C14.4267 15.1394 14.3119 15.0287 14.2156 14.8995C13.997 14.6079 13.9044 14.0801 14.1267 13.7443C14.2637 13.5339 14.4563 13.3899 14.6897 13.305C14.749 13.2829 14.8083 13.2681 14.8675 13.2534C15.0379 13.2091 15.0935 13.15 15.112 12.9766C15.1639 12.482 15.2713 11.9985 15.4194 11.526C15.5343 11.157 15.6751 10.7952 15.8047 10.4335C15.8343 10.3486 15.8751 10.2638 15.9084 10.1789C15.9306 10.1198 15.9195 10.0792 15.8454 10.0681C15.7528 10.0571 15.6639 10.0423 15.5713 10.0312C15.0935 9.96848 14.6193 9.89467 14.1415 9.84669C13.597 9.78763 13.0487 9.75071 12.5005 9.70273C12.5005 9.71012 12.5005 9.7212 12.4968 9.72859ZM14.7601 17.4979C14.749 17.4905 14.7342 17.4868 14.7231 17.4794C14.6045 17.5901 14.4823 17.6935 14.3712 17.8116C13.9785 18.236 13.6192 18.6863 13.2932 19.1661C12.9487 19.6718 12.6413 20.2033 12.4264 20.7791C12.3153 21.0743 12.2264 21.377 12.2486 21.6944C12.2783 22.0856 12.4487 22.3255 12.8709 22.44C13.0487 22.488 13.2154 22.4289 13.3599 22.3292C13.6081 22.1594 13.76 21.9085 13.8896 21.6427C14.0489 21.3142 14.1748 20.9747 14.2563 20.6203C14.3712 20.1147 14.486 19.6091 14.5712 19.096C14.649 18.6384 14.686 18.177 14.7416 17.7156C14.749 17.6455 14.7527 17.5717 14.7601 17.4979Z" stroke="#27131F" stroke-width="0.949589" stroke-miterlimit="10"/>
<path d="M12.0281 9.29694C11.5873 9.29694 11.1502 9.31909 10.7205 9.40396C10.3612 9.47409 10.0241 9.60328 9.82036 9.92809C9.73516 10.0646 9.67588 10.2307 9.64996 10.3894C9.55364 10.9911 9.73146 11.5152 10.1426 11.9691C10.439 12.2939 10.7835 12.5486 11.1835 12.7294C11.2909 12.7774 11.391 12.8328 11.4984 12.8845C11.6354 12.9509 11.7021 13.069 11.6762 13.2203C11.6354 13.4344 11.5873 13.6485 11.465 13.8367C11.2798 14.1209 11.0168 14.3055 10.7057 14.4309C10.3427 14.5749 9.99074 14.5712 9.62774 14.4162C9.27954 14.2649 8.94616 14.0877 8.64241 13.8589C8.25347 13.5636 7.9275 13.2093 7.68672 12.7811C7.36445 12.2164 7.2274 11.6037 7.25333 10.9578C7.26815 10.5961 7.33852 10.2455 7.44965 9.90224C7.54596 9.60696 7.67561 9.33384 7.83489 9.0681C8.20902 8.43696 8.7165 7.94238 9.34621 7.5733C9.93149 7.23374 10.5575 7.04919 11.228 7.0455C12.2096 7.03812 13.1912 7.03812 14.1728 7.0455C14.7433 7.04919 15.3137 7.07872 15.8842 7.09717C16.4472 7.11563 17.014 7.14147 17.577 7.14885C18.5623 7.15992 19.5476 7.17099 20.5293 7.15992C20.9738 7.15254 21.422 7.09717 21.8665 7.05288C21.9961 7.04181 22.1221 7.0049 22.248 6.97907C22.474 6.93478 22.5851 6.98645 22.6814 7.18945C22.9444 7.7357 22.9 8.27087 22.5999 8.78391C22.3073 9.28218 21.8591 9.58852 21.3331 9.79522C20.8664 9.97975 20.3774 10.0314 19.8847 10.0646C19.3032 10.1052 18.7253 10.0683 18.1474 9.99822C17.9474 9.97236 17.9067 10.0167 17.8882 10.216C17.8511 10.5814 17.803 10.9468 17.7622 11.3158C17.7178 11.6776 17.677 12.0429 17.6363 12.4047C17.6252 12.4932 17.6252 12.5818 17.6066 12.6704C17.5881 12.7627 17.6252 12.7885 17.7104 12.7996C17.9474 12.8328 18.1845 12.818 18.4216 12.7959C18.9216 12.7516 19.3958 12.6113 19.8662 12.4526C20.0218 12.401 20.1774 12.3493 20.3367 12.3161C20.3922 12.305 20.47 12.3382 20.5182 12.3751C20.7626 12.5707 20.8664 12.8328 20.8775 13.1391C20.8923 13.5378 20.8182 13.9105 20.5922 14.2464C20.4256 14.4974 20.1996 14.6856 19.9329 14.8259C19.4291 15.0879 18.8846 15.1802 18.3216 15.1802C18.103 15.1802 17.8845 15.1691 17.6659 15.1617C17.5214 15.158 17.5029 15.1765 17.4918 15.3204C17.4733 15.5345 17.4585 15.7486 17.4325 15.9627C17.3548 16.6602 17.2807 17.3541 17.1881 18.0517C17.1103 18.657 16.9917 19.2586 16.8139 19.8455C16.725 20.137 16.6398 20.4286 16.5324 20.7128C16.3731 21.1447 16.1546 21.5469 15.9027 21.9308C15.5508 22.466 15.1211 22.9347 14.6062 23.3223C14.095 23.7024 13.5357 23.9903 12.9023 24.1121C12.4911 24.1896 12.0762 24.2044 11.6688 24.1121C11.0464 23.9645 10.5093 23.6655 10.1278 23.134C9.91667 22.8388 9.76849 22.514 9.67958 22.1596C9.53142 21.5728 9.53142 20.986 9.65366 20.3954C9.76108 19.8787 9.95 19.3915 10.2019 18.9227C10.476 18.4134 10.8094 17.9484 11.1835 17.5091C11.5502 17.0773 11.9503 16.675 12.3874 16.3133C12.7726 15.9996 13.169 15.6969 13.5616 15.3869C13.7283 15.2577 13.895 15.1285 14.058 14.992C14.1432 14.9218 14.1395 14.9071 14.0654 14.8259C13.958 14.7078 13.8432 14.597 13.7468 14.4679C13.5283 14.1763 13.4357 13.6485 13.6579 13.3126C13.795 13.1022 13.9876 12.9583 14.221 12.8734C14.2802 12.8513 14.3395 12.8365 14.3988 12.8217C14.5692 12.7774 14.6247 12.7184 14.6433 12.5449C14.6951 12.0503 14.8025 11.5668 14.9507 11.0944C15.0655 10.7253 15.2063 10.3636 15.336 10.0019C15.3656 9.917 15.4063 9.83211 15.4397 9.74722C15.4619 9.68818 15.4508 9.64758 15.3767 9.63649C15.2841 9.62543 15.1952 9.61066 15.1026 9.59958C14.6247 9.53683 14.1506 9.46303 13.6727 9.41505C13.1282 9.35599 12.58 9.31909 12.0318 9.27109C12.0318 9.27848 12.0281 9.28586 12.0281 9.29694ZM14.2877 17.0662C14.2765 17.0589 14.2617 17.0552 14.2506 17.0478C14.1321 17.1585 14.0098 17.2619 13.8987 17.38C13.506 17.8044 13.1467 18.2547 12.8208 18.7345C12.4763 19.2402 12.1688 19.7716 11.954 20.3474C11.8429 20.6427 11.754 20.9453 11.7762 21.2628C11.8058 21.654 11.9762 21.8939 12.3985 22.0083C12.5763 22.0563 12.743 21.9972 12.8875 21.8976C13.1356 21.7278 13.2875 21.4768 13.4172 21.2111C13.5764 20.8826 13.7024 20.543 13.7839 20.1887C13.8987 19.6831 14.0135 19.1774 14.0987 18.6644C14.1765 18.2067 14.2136 17.7454 14.2691 17.284C14.2802 17.2139 14.284 17.1401 14.2877 17.0662Z" fill="white"/>
<path d="M19.2586 24.4405C19.7661 24.4774 20.2884 24.2117 20.544 23.7725C20.8033 23.3333 20.7848 22.7501 20.4959 22.3294C20.0143 21.6355 18.7141 21.5432 18.214 22.2851C17.651 23.1192 18.2696 24.3667 19.2586 24.4405Z" fill="white"/>
</g>
</g>
</g>
<path d="M42.8186 17.1282V14.3667H48.2628V17.1282H42.8186ZM43.6668 22.2174H40.7869V8.78441H49.249V11.5657H42.6608L43.6668 10.3624V22.2174Z" fill="#27131F"/>
<path d="M53.05 22.316C52.5635 22.316 52.1164 22.2174 51.7087 22.0201C51.301 21.8229 50.9723 21.5204 50.7224 21.1128C50.4726 20.692 50.3477 20.1331 50.3477 19.4361V8.78441H53.2078V18.4104C53.2078 18.8969 53.2933 19.2126 53.4643 19.3572C53.6484 19.4887 53.8785 19.5545 54.1546 19.5545V22.2174C54.0231 22.2437 53.8456 22.2634 53.6221 22.2766C53.4117 22.3029 53.221 22.316 53.05 22.316Z" fill="#27131F"/>
<path d="M58.1891 22.2174H55.3092V12.5717H58.1891V22.2174ZM55.0528 9.53398C55.0528 9.02112 55.204 8.60688 55.5064 8.29128C55.8221 7.97567 56.2363 7.81787 56.7491 7.81787C57.262 7.81787 57.6697 7.97567 57.9721 8.29128C58.2877 8.60688 58.4455 9.02112 58.4455 9.53398C58.4455 10.0337 58.2877 10.4413 57.9721 10.7569C57.6697 11.0594 57.262 11.2106 56.7491 11.2106C56.2363 11.2106 55.8221 11.0594 55.5064 10.7569C55.204 10.4413 55.0528 10.0337 55.0528 9.53398Z" fill="#27131F"/>
<path d="M62.014 12.5717L62.7635 15.2346V22.2174H59.8836V12.5717H62.014ZM62.1323 16.8324L61.6392 16.6154V14.3864L61.8167 14.1497C61.9745 13.9262 62.1981 13.6697 62.4874 13.3804C62.7898 13.0911 63.1383 12.8478 63.5328 12.6506C63.9405 12.4402 64.3547 12.335 64.7755 12.335C64.9859 12.335 65.1766 12.3481 65.3475 12.3744C65.5185 12.4007 65.6566 12.4468 65.7618 12.5125V15.136H65.1108C64.2692 15.136 63.6051 15.2741 63.1186 15.5502C62.6452 15.8132 62.3164 16.2406 62.1323 16.8324Z" fill="#27131F"/>
<path d="M71.1289 22.3752C70.0638 22.3752 69.2221 22.1122 68.6041 21.5862C67.9992 21.0602 67.6967 20.1988 67.6967 19.0021V12.69L67.6573 12.5717L68.249 10.2441H70.5766V18.3709C70.5766 18.818 70.6818 19.1402 70.8922 19.3375C71.1026 19.5216 71.3788 19.6136 71.7207 19.6136C71.9179 19.6136 72.102 19.6005 72.273 19.5742C72.4571 19.5347 72.6083 19.4953 72.7267 19.4558V22.1582C72.5031 22.224 72.2598 22.2766 71.9968 22.316C71.747 22.3555 71.4577 22.3752 71.1289 22.3752ZM66.1976 15.2149V12.5717H72.7267V15.2149H66.1976Z" fill="#27131F"/>
<path d="M77.5093 22.4541C76.7992 22.4541 76.2206 22.3489 75.7735 22.1385C75.3395 21.9281 74.9976 21.6388 74.7478 21.2706C74.5111 20.8892 74.3467 20.4618 74.2546 19.9884C74.1757 19.5019 74.1363 18.989 74.1363 18.4498V12.5717H77.0162V18.292C77.0162 18.8312 77.128 19.1928 77.3515 19.3769C77.5751 19.5479 77.8512 19.6334 78.18 19.6334C78.4693 19.6334 78.752 19.5873 79.0282 19.4953C79.3043 19.3901 79.5739 19.2454 79.8369 19.0613C80.0999 18.8641 80.3366 18.6274 80.547 18.3512L81.0401 19.8109H80.2314V12.5717H83.131V22.2174H80.981L80.3892 20.304L81.3755 20.3829C81.0599 20.7511 80.6917 21.0996 80.2709 21.4284C79.8632 21.744 79.4292 21.9938 78.969 22.1779C78.5087 22.362 78.0222 22.4541 77.5093 22.4541Z" fill="#27131F"/>
<path d="M89.6695 22.2174V8.78441H94.3642C95.7581 8.78441 96.9548 9.05399 97.9542 9.59315C98.9667 10.1192 99.7426 10.8885 100.282 11.901C100.834 12.9004 101.11 14.1037 101.11 15.5108C101.11 16.931 100.834 18.1408 100.282 19.1402C99.7426 20.1396 98.9667 20.9024 97.9542 21.4284C96.9416 21.9544 95.7384 22.2174 94.3444 22.2174H89.6695ZM92.5494 20.521L91.4054 19.4361H94.1472C94.9493 19.4361 95.6463 19.3046 96.2381 19.0416C96.843 18.7654 97.3098 18.3381 97.6386 17.7594C97.9805 17.1808 98.1514 16.4313 98.1514 15.5108C98.1514 14.6034 97.987 13.8604 97.6583 13.2818C97.3295 12.7032 96.8627 12.2758 96.2578 11.9996C95.666 11.7103 94.9691 11.5657 94.1669 11.5657H91.2673L92.5494 10.7175V20.521Z" fill="#27131F"/>
<path d="M104.982 22.4738C104.285 22.4738 103.667 22.3423 103.128 22.0793C102.602 21.8031 102.194 21.4218 101.905 20.9352C101.615 20.4487 101.471 19.8832 101.471 19.2389C101.471 18.555 101.628 17.9764 101.944 17.503C102.26 17.0165 102.681 16.6417 103.207 16.3787C103.746 16.1157 104.344 15.9842 105.002 15.9842C105.961 15.9842 106.737 16.2011 107.329 16.6351C107.921 17.0691 108.315 17.6937 108.513 18.509L107.27 18.292V16.0433C107.27 15.6883 107.145 15.3793 106.895 15.1163C106.645 14.8532 106.244 14.7217 105.692 14.7217C105.337 14.7217 104.929 14.7678 104.469 14.8598C104.009 14.9387 103.535 15.0965 103.049 15.3332L102.201 13.2818C102.779 12.9925 103.397 12.7624 104.055 12.5914C104.725 12.4205 105.409 12.335 106.106 12.335C107 12.335 107.75 12.4928 108.355 12.8084C108.96 13.124 109.407 13.5711 109.696 14.1497C109.999 14.7283 110.15 15.399 110.15 16.1617V22.2174H107.803L107.23 20.3435L108.513 19.949C108.302 20.738 107.901 21.356 107.309 21.8031C106.718 22.2503 105.942 22.4738 104.982 22.4738ZM105.869 20.4224C106.303 20.4224 106.645 20.3106 106.895 20.087C107.158 19.8635 107.29 19.5808 107.29 19.2389C107.29 18.8706 107.158 18.5813 106.895 18.3709C106.645 18.1605 106.303 18.0553 105.869 18.0553C105.435 18.0553 105.094 18.1605 104.844 18.3709C104.594 18.5813 104.469 18.8706 104.469 19.2389C104.469 19.5808 104.594 19.8635 104.844 20.087C105.094 20.3106 105.435 20.4224 105.869 20.4224Z" fill="#27131F"/>
<path d="M115.869 22.3752C114.804 22.3752 113.962 22.1122 113.344 21.5862C112.74 21.0602 112.437 20.1988 112.437 19.0021V12.69L112.398 12.5717L112.989 10.2441H115.317V18.3709C115.317 18.818 115.422 19.1402 115.633 19.3375C115.843 19.5216 116.119 19.6136 116.461 19.6136C116.658 19.6136 116.842 19.6005 117.013 19.5742C117.197 19.5347 117.349 19.4953 117.467 19.4558V22.1582C117.243 22.224 117 22.2766 116.737 22.316C116.487 22.3555 116.198 22.3752 115.869 22.3752ZM110.938 15.2149V12.5717H117.467V15.2149H110.938Z" fill="#27131F"/>
<path d="M121.914 22.2174H119.034V12.5717H121.914V22.2174ZM118.778 9.53398C118.778 9.02112 118.929 8.60688 119.232 8.29128C119.547 7.97567 119.962 7.81787 120.474 7.81787C120.987 7.81787 121.395 7.97567 121.697 8.29128C122.013 8.60688 122.171 9.02112 122.171 9.53398C122.171 10.0337 122.013 10.4413 121.697 10.7569C121.395 11.0594 120.987 11.2106 120.474 11.2106C119.962 11.2106 119.547 11.0594 119.232 10.7569C118.929 10.4413 118.778 10.0337 118.778 9.53398Z" fill="#27131F"/>
<path d="M129.546 12.335C130.191 12.335 130.717 12.4468 131.124 12.6703C131.532 12.8807 131.841 13.1766 132.051 13.5579C132.275 13.9393 132.42 14.3733 132.485 14.8598C132.564 15.3332 132.604 15.8264 132.604 16.3392V22.2174H129.724V16.497C129.724 15.9447 129.625 15.5831 129.428 15.4121C129.231 15.228 128.968 15.136 128.639 15.136C128.363 15.136 128.073 15.1952 127.771 15.3135C127.482 15.4187 127.199 15.5699 126.923 15.7672C126.647 15.9644 126.403 16.188 126.193 16.4379L125.68 14.9782H126.489V22.2174H123.609V12.5717H125.739L126.331 14.485L125.345 14.4061C125.687 14.0248 126.075 13.6763 126.508 13.3607C126.942 13.0451 127.416 12.7952 127.929 12.6111C128.442 12.427 128.981 12.335 129.546 12.335Z" fill="#27131F"/>
<path d="M138.321 26.1625C137.808 26.1625 137.282 26.0835 136.743 25.9257C136.217 25.7811 135.73 25.5247 135.283 25.1565C134.836 24.8014 134.461 24.328 134.159 23.7362L134.001 23.4009L136.072 22.3357C136.401 22.8486 136.73 23.2168 137.059 23.4404C137.401 23.6639 137.834 23.7757 138.36 23.7757C138.965 23.7757 139.459 23.5784 139.84 23.1839C140.221 22.8026 140.412 22.224 140.412 21.4481V18.8443H140.609V14.9979H140.412L141.142 12.5717H143.292V20.8366C143.292 21.9675 143.095 22.9341 142.7 23.7362C142.306 24.5384 141.734 25.1433 140.984 25.551C140.248 25.9586 139.36 26.1625 138.321 26.1625ZM137.946 21.7045C137.078 21.7045 136.309 21.5073 135.638 21.1128C134.981 20.7183 134.455 20.1659 134.06 19.4558C133.679 18.7457 133.488 17.937 133.488 17.0296C133.488 16.1091 133.672 15.3004 134.041 14.6034C134.422 13.8933 134.948 13.341 135.619 12.9465C136.289 12.5388 137.052 12.335 137.907 12.335C138.709 12.335 139.413 12.5322 140.017 12.9267C140.622 13.3212 141.096 13.867 141.438 14.5639C141.78 15.2609 141.951 16.0828 141.951 17.0296C141.951 18.0027 141.786 18.8378 141.457 19.5347C141.129 20.2317 140.662 20.7709 140.057 21.1522C139.465 21.5204 138.762 21.7045 137.946 21.7045ZM138.499 19.1797C139.103 19.1797 139.597 18.9758 139.978 18.5682C140.372 18.1605 140.57 17.6477 140.57 17.0296C140.57 16.3852 140.372 15.8592 139.978 15.4516C139.597 15.0439 139.103 14.8401 138.499 14.8401C137.894 14.8401 137.394 15.0439 136.999 15.4516C136.618 15.8592 136.427 16.3852 136.427 17.0296C136.427 17.6477 136.618 18.1605 136.999 18.5682C137.394 18.9758 137.894 19.1797 138.499 19.1797Z" fill="#27131F"/>
<defs>
<clipPath id="clip0_107_2192">
<rect width="30.8847" height="18.517" fill="white" transform="translate(0.000244141 6.72656)"/>
</clipPath>
<clipPath id="clip1_107_2192">
<rect width="30.8847" height="18.517" fill="white" transform="translate(0.000244141 6.72656)"/>
</clipPath>
<clipPath id="clip2_107_2192">
<rect width="16.8552" height="18.517" fill="white" transform="translate(7.01392 6.72656)"/>
</clipPath>
</defs>
</svg>
