<svg width="169" height="35" viewBox="0 0 169 35" fill="none" xmlns="http://www.w3.org/2000/svg">
<path fill-rule="evenodd" clip-rule="evenodd" d="M152.468 1.06177C161.33 1.06177 168.513 8.24523 168.513 17.1065V17.5581C168.513 26.404 161.354 33.5811 152.508 33.6027L14.7644 33.9403C12.4237 33.9403 10.2734 33.3157 8.58227 32.2723C6.73181 33.5218 4.36612 34.0392 1.48541 33.8247C1.44858 33.822 1.41567 33.8059 1.39682 33.7815C1.37071 33.7478 1.37715 33.7061 1.409 33.678L1.43754 33.6598L1.64594 33.5635C3.01178 32.9204 3.90507 32.2543 4.32579 31.565C4.77517 30.8289 4.97141 29.226 4.91449 26.7565C4.90637 26.6339 4.90249 26.5109 4.90249 26.3871V17.1065C4.90249 8.24524 12.086 1.06177 20.9472 1.06177L152.468 1.06177Z" fill="#82CEF9"/>
<path d="M14.7644 34.1631H14.765L152.508 33.8256C161.477 33.8036 168.736 26.5268 168.736 17.5581V17.1065C168.736 8.12216 161.453 0.838924 152.468 0.838924L20.9472 0.838924C11.9629 0.838924 4.67965 8.12216 4.67965 17.1065V26.3871C4.67965 26.5139 4.68358 26.6403 4.69181 26.7664C4.71994 27.9932 4.685 28.998 4.58881 29.7837C4.49177 30.5764 4.33491 31.1224 4.13559 31.4489C3.75005 32.0805 2.90693 32.7234 1.55167 33.3616C1.55145 33.3617 1.55123 33.3618 1.55102 33.3619L1.34406 33.4575L1.3304 33.4639L1.31771 33.4719L1.28917 33.4901L1.27455 33.4995L1.26155 33.5109C1.21022 33.5562 1.17018 33.6211 1.16014 33.6993C1.14987 33.7793 1.17334 33.8568 1.22051 33.9178L1.22052 33.9178C1.28565 34.0021 1.38261 34.0405 1.46886 34.0469C4.32404 34.2596 6.70325 33.7632 8.58752 32.5362C10.2964 33.5577 12.4406 34.1631 14.7644 34.1631ZM1.409 33.678L1.43754 33.6598L14.7644 33.9403C12.4237 33.9403 10.2734 33.3157 8.58227 32.2723C6.75534 33.5059 4.4262 34.026 1.59505 33.8325L1.54468 33.8558L1.52882 33.8659L1.50339 33.826C1.4974 33.8256 1.4914 33.8251 1.48541 33.8247C1.44858 33.822 1.41567 33.8059 1.39682 33.7815C1.37071 33.7478 1.37715 33.7061 1.409 33.678ZM1.57025 33.8308C1.562 33.8302 1.55374 33.8297 1.54547 33.8291L1.55379 33.8421L1.55644 33.8451C1.56104 33.8411 1.56572 33.8363 1.57025 33.8308ZM1.39678 33.7816L1.39676 33.7816L1.39678 33.7816Z" stroke="#872E46" stroke-opacity="0.08" stroke-width="0.445686"/>
</svg>
