<svg width="36" height="37" viewBox="0 0 36 37" fill="none" xmlns="http://www.w3.org/2000/svg">
<rect y="5.51624" width="30.5792" height="30.5792" rx="8.40927" fill="url(#paint0_linear_107_354)"/>
<path d="M9.84595 22.0372L11.8759 27.6558C11.8759 27.6558 12.1297 28.1815 12.4015 28.1815C12.6732 28.1815 16.7153 23.9765 16.7153 23.9765L21.2103 15.2946L9.91838 20.5868L9.84595 22.0372Z" fill="#C8DAEA"/>
<path d="M12.5369 23.4781L12.1472 27.6196C12.1472 27.6196 11.9841 28.8886 13.2528 27.6196C14.5215 26.3506 15.7359 25.3721 15.7359 25.3721" fill="#A9C6D8"/>
<path d="M9.88187 22.2375L5.70617 20.877C5.70617 20.877 5.20713 20.6745 5.36782 20.2154C5.4009 20.1207 5.46763 20.0401 5.66724 19.9017C6.59247 19.2568 22.7924 13.4341 22.7924 13.4341C22.7924 13.4341 23.2498 13.28 23.5196 13.3825C23.5863 13.4031 23.6463 13.4411 23.6936 13.4926C23.7408 13.5441 23.7735 13.6072 23.7883 13.6755C23.8175 13.7961 23.8297 13.9201 23.8245 14.0441C23.8233 14.1513 23.8103 14.2507 23.8004 14.4065C23.7018 15.9985 20.7492 27.8797 20.7492 27.8797C20.7492 27.8797 20.5725 28.5749 19.9396 28.5987C19.784 28.6037 19.6291 28.5774 19.4839 28.5212C19.3388 28.4651 19.2064 28.3803 19.0948 28.2719C17.8527 27.2035 13.5598 24.3185 12.6112 23.684C12.5898 23.6694 12.5718 23.6504 12.5584 23.6283C12.5449 23.6061 12.5364 23.5814 12.5334 23.5557C12.5201 23.4888 12.5928 23.406 12.5928 23.406C12.5928 23.406 20.0679 16.7616 20.2668 16.064C20.2822 16.01 20.224 15.9833 20.1459 16.007C19.6494 16.1897 11.0428 21.6248 10.0929 22.2247C10.0245 22.2453 9.95225 22.2497 9.88187 22.2375Z" fill="white"/>
<circle cx="28.0945" cy="8.12866" r="7.54565" fill="#FF8C04"/>
<path d="M30.1661 9.72037V10.9097H25.6777C25.7263 10.4601 25.8721 10.0348 26.1151 9.63379C26.3582 9.22976 26.8381 8.69511 27.5551 8.02983C28.1322 7.49214 28.4862 7.1276 28.6168 6.93622C28.793 6.67193 28.8811 6.41068 28.8811 6.15247C28.8811 5.86691 28.8036 5.64819 28.6487 5.4963C28.4968 5.34137 28.2857 5.26391 28.0153 5.26391C27.748 5.26391 27.5353 5.34441 27.3774 5.50541C27.2194 5.66642 27.1283 5.93375 27.104 6.3074L25.8281 6.17981C25.904 5.47504 26.1425 4.96924 26.5435 4.66242C26.9445 4.35561 27.4457 4.2022 28.0472 4.2022C28.7064 4.2022 29.2243 4.37991 29.601 4.73533C29.9777 5.09075 30.1661 5.53276 30.1661 6.06133C30.1661 6.36208 30.1114 6.64915 30.002 6.92255C29.8957 7.19292 29.7256 7.47695 29.4917 7.77465C29.3367 7.97211 29.0573 8.25615 28.6532 8.62676C28.2492 8.99737 27.9925 9.24343 27.8832 9.36494C27.7768 9.48646 27.6902 9.60493 27.6234 9.72037H30.1661Z" fill="white"/>
<defs>
<linearGradient id="paint0_linear_107_354" x1="15.2896" y1="36.0954" x2="15.2896" y2="5.51624" gradientUnits="userSpaceOnUse">
<stop stop-color="#1D93D2"/>
<stop offset="1" stop-color="#38B0E3"/>
</linearGradient>
</defs>
</svg>
