<svg width="13" height="14" viewBox="0 0 13 14" fill="none" xmlns="http://www.w3.org/2000/svg">
<g opacity="0.6" clip-path="url(#clip0_107_299)">
<path d="M7.12158 7.25735L2.7503 2.86577C2.51921 2.62778 2.39208 2.30777 2.39686 1.97608C2.40438 1.65485 2.53361 1.34846 2.75843 1.11889C2.87193 1.00281 3.00749 0.910575 3.15713 0.847605C3.30677 0.784635 3.46749 0.752197 3.62984 0.752197C3.79219 0.752197 3.95291 0.784635 4.10255 0.847605C4.25219 0.910575 4.38775 1.00281 4.50125 1.11889L10.6154 7.25735L8.86847 9.01236L4.50125 13.3877C4.38561 13.5049 4.24741 13.5975 4.095 13.6599C3.94596 13.7234 3.78575 13.7565 3.62375 13.7574C3.46078 13.757 3.29942 13.7253 3.14843 13.6639C2.99721 13.6022 2.85994 13.5107 2.74479 13.3948C2.62964 13.279 2.53895 13.1412 2.47811 12.9896C2.4152 12.8383 2.38281 12.6761 2.38281 12.5122C2.38281 12.3484 2.4152 12.1862 2.47811 12.0349C2.5404 11.8834 2.63146 11.7454 2.74624 11.6286L7.12158 7.25735Z" fill="white"/>
</g>
<defs>
<clipPath id="clip0_107_299">
<rect width="13.0001" height="13.0001" fill="white" transform="translate(0 0.757324)"/>
</clipPath>
</defs>
</svg>
