<svg width="71" height="195" viewBox="0 0 71 195" fill="none" xmlns="http://www.w3.org/2000/svg">
<path fill-rule="evenodd" clip-rule="evenodd" d="M5.0703 133.091C4.98596 133.407 4.82484 133.577 4.52756 133.519C4.01591 133.421 3.72947 133.106 3.70026 132.578C3.68424 132.288 3.85479 132.232 4.09601 132.275C4.59163 132.363 4.82154 132.75 5.0703 133.091ZM2.45028 40.0182C2.9558 41.4396 3.28323 42.9062 3.70818 44.3474C2.87523 43.0268 2.42436 41.5913 2.45028 40.0182ZM6.19727 136.039C8.30603 138.313 10.5067 140.496 12.7417 142.646C10.0256 140.969 7.92771 138.685 6.19727 136.039ZM47.7577 158.542C52.1114 160.511 55.7325 163.461 59.1887 166.641C55.5831 163.932 51.9823 161.22 48.1332 158.858C47.9957 158.773 47.8826 158.648 47.7577 158.542ZM97.5498 49.1275C96.2844 44.8039 93.7723 41.1376 92.5078 36.9408C94.0983 38.0626 98.2051 47.7193 97.5498 49.1275ZM46.4838 6.14514C47.3328 6.14514 48.1897 6.07166 49.0298 6.15834C52.4718 6.51216 55.8686 7.16513 59.265 7.80823C64.3041 8.76225 68.9523 10.9035 73.721 12.6608C75.9212 13.4721 78.0257 14.5783 79.5164 16.5297C84.4425 22.9799 88.4084 29.9238 91.2238 37.5881C93.4711 43.7048 96.3949 49.5698 98.7967 55.6342C100.512 59.9629 101.606 64.4984 102.097 69.1527C102.505 73.0301 102.276 76.9187 102.303 80.8041C102.326 83.9993 102.269 87.1921 102.471 90.3977C102.612 92.6553 102.105 95.0072 101.912 97.3199C101.57 101.392 101.632 105.414 102.87 109.365C104.012 113.009 105.56 116.48 107.482 119.758C111.373 126.396 116.251 132.31 121.367 138.02C124.115 141.086 126.81 144.182 129.083 147.619C133.264 153.943 135.27 160.927 135.097 168.49C134.962 174.402 132.372 178.992 127.272 182.111C118.406 187.532 109.046 189.266 98.9974 185.965C91.2154 183.408 84.2865 179.346 77.948 174.186C73.9948 170.968 70.3855 167.365 66.4431 164.137C61.0736 159.74 55.6185 155.474 49.2945 152.485C44.4005 150.17 39.2562 148.543 34.0823 147.012C29.6655 145.706 25.4536 143.943 21.4745 141.628C16.882 138.957 13.0036 135.539 10.3192 130.883C10.0002 130.328 9.98796 130.336 9.26149 130.32C9.041 130.316 9.02734 130.132 8.95337 129.985C8.28154 128.645 7.84292 127.247 7.82502 125.731C7.81277 124.707 8.20805 123.243 7.85753 122.75C6.73201 121.169 7.57956 119.638 7.78686 118.305C8.04457 116.653 8.47753 114.938 8.98399 113.282C10.2546 109.124 11.7146 105.042 13.7852 101.223C15.6839 97.7194 17.5232 94.1851 18.0711 90.2172C18.2294 89.0672 19.6154 87.7542 18.1361 86.5259C18.1356 86.5255 18.2397 86.411 18.284 86.3427C19.0694 85.1324 19.4661 83.7661 19.5259 82.3626C19.5839 81.0218 20.063 79.7686 20.1205 78.4433C20.2133 76.3044 21.0067 74.2253 20.5483 72.0284C20.34 71.0287 20.3886 69.9682 20.3867 68.935C20.3824 66.6355 19.6032 64.4442 19.4826 62.139C19.4373 61.2754 18.6831 60.1782 18.2675 59.1893C16.7778 55.6445 14.1353 52.9445 11.8169 49.9868C9.63556 47.2048 7.18476 44.4774 6.95532 40.6632C6.86298 39.1245 6.40505 37.5005 7.19889 36.0565C9.33451 32.1758 10.4577 27.7765 13.3876 24.2972C15.6679 21.5891 17.199 18.3082 19.9773 15.9554C22.6942 13.6544 25.2883 11.1772 28.4269 9.47742C29.9675 8.64305 31.5298 7.78891 33.3384 7.38986C37.6841 6.43065 42.0557 6.08437 46.4838 6.14514ZM82.4511 185.237C82.6909 185.31 82.9505 185.346 83.1677 185.462C88.5928 188.347 94.2467 190.632 100.243 192.035C100.46 192.086 100.757 192.078 100.886 192.411C100.48 192.353 100.099 192.308 99.7212 192.243C94.7424 191.377 90.1272 189.477 85.6444 187.226C84.5288 186.666 83.3076 186.231 82.4738 185.211C81.1372 185.118 80.3212 183.99 79.1646 183.526C78.962 183.445 78.7434 183.076 79.0524 182.763C79.1551 182.66 79.2969 182.593 79.3605 182.715C80.0338 183.999 81.6667 184.099 82.4511 185.237ZM67.2935 165.708C68.8454 166.674 70.0802 167.992 71.3127 169.312C69.9855 168.098 68.3818 167.188 67.3185 165.682C66.1854 165.28 65.4613 164.36 64.6523 163.549C65.6803 164.085 66.5628 164.803 67.2935 165.708ZM101.539 42.2575C100.638 39.7935 99.7754 37.3441 97.9522 35.315C96.8502 34.0891 95.9715 32.6131 95.2446 31.1262C94.9812 30.5863 94.4974 30.4233 94.2218 29.9408C93.5787 28.8144 93.3427 27.5419 92.5191 26.4474C90.6629 23.9806 88.8307 21.503 86.8929 19.0936C85.6143 17.504 84.4176 15.8339 83.0891 14.2815C80.6133 11.3898 77.4534 9.45013 73.9459 8.06926C69.8928 6.47356 65.8779 4.74216 61.7348 3.41876C54.0139 0.952881 46.1334 -0.0402374 37.9777 0.932632C33.0644 1.51872 28.2791 2.44684 24.0682 4.95605C17.3339 8.96959 11.7822 14.3145 7.86097 21.2099C7.71398 21.4681 7.52506 21.7027 7.34839 21.943C5.74561 24.1229 4.29878 26.3749 3.56288 29.0297C3.19823 30.3427 2.65973 31.6035 2.06517 32.8425C0.301746 36.5168 0.640486 40.2175 2.0647 43.9032C3.49834 47.6128 5.89261 50.7623 8.56908 53.5547C12.1454 57.286 13.8236 61.6133 14.3578 66.6148C14.8548 71.2667 14.0384 75.772 13.2097 80.2944C12.7013 83.0693 12.2467 85.8556 11.7007 88.623C10.8196 93.0841 8.76742 97.0604 6.66007 101.047C3.9167 106.237 1.81972 111.701 0.551914 117.463C-0.509063 122.284 0.0138875 127.019 1.65576 131.565C2.60179 134.184 3.83143 136.754 5.82429 138.876C7.76439 140.942 9.72192 142.965 12.0356 144.614C17.5963 148.581 23.7266 151.363 30.2263 153.389C37.647 155.701 44.8741 158.437 51.2145 163.095C55.9126 166.546 60.3826 170.271 64.676 174.212C70.5222 179.577 76.6455 184.572 83.7218 188.266C90.5814 191.847 97.7458 194.634 105.587 194.562C117.388 194.454 127.493 190.284 134.652 180.577C139.945 173.397 140.803 165.17 139.074 156.58C138.761 155.029 138.445 153.479 138.083 151.939C137.151 147.984 135.543 144.347 133.18 141.012C131.803 139.068 130.318 137.206 128.94 135.283C127.322 133.026 125.52 130.958 123.658 128.941C121.501 126.606 119.59 124.1 117.774 121.506C117.141 120.602 116.138 120.054 115.526 119.081C113.212 115.404 110.807 111.782 109.155 107.737C108.263 105.554 107.354 103.425 107.178 100.965C107.071 99.456 107.163 97.9527 107.032 96.4536C106.835 94.2082 107.222 91.9953 107.579 89.8008C107.716 88.9584 106.695 88.2767 106.915 88.2178C108.105 87.9017 107.268 87.2327 107.293 86.7465C107.307 86.4591 107.125 86.1434 107.19 85.8796C108.295 81.3949 107.817 76.8146 107.911 72.2852C107.999 68.0804 108.366 63.796 107.23 59.6746C106.815 58.1717 106.512 56.6283 106.074 55.1259C105.549 53.3238 104.58 51.6334 104.418 49.7531C104.191 47.1049 102.852 44.8854 101.888 42.518C101.836 42.388 101.64 42.3154 101.509 42.2123C101.633 43.6223 102.787 44.6734 102.828 46.1236C101.838 44.0209 100.603 42.029 100.091 39.7111C100.574 40.56 101.056 41.4085 101.539 42.2575Z" fill="#FF0467"/>
<path fill-rule="evenodd" clip-rule="evenodd" d="M58.0723 145.119C60.8364 146.741 63.0775 148.964 65.1754 151.349C62.8165 149.262 60.4976 147.129 58.0723 145.119ZM74.0514 159.001C73.9596 159.099 73.8677 159.197 73.7758 159.295C71.3538 157.082 68.7301 155.095 66.627 152.525L74.0514 159.001ZM18.3711 41.7455C16.9516 40.3363 16.3052 35.9666 17.2366 35.0668C17.5023 37.2797 17.5094 39.5759 18.3711 41.7455ZM29.1166 129.777C25.7862 127.52 22.8139 124.93 21.375 120.99C23.6652 124.176 26.181 127.157 29.1166 129.777ZM78.5979 163.016C84.1661 167.378 90.0053 171.249 96.5389 173.997C92.2587 173.43 80.3863 165.584 78.5979 163.016ZM76.6387 58.985C75.3083 56.3273 74.4838 53.4813 73.7003 50.6418C72.8989 47.7377 71.8172 44.9345 70.8787 42.0838C69.9916 39.3889 68.7097 36.8236 67.6016 34.2013C72.3439 41.8496 74.1125 50.548 76.6387 58.985ZM28.9977 101.643C29.0199 101.807 28.9836 102.042 29.0769 102.118C29.2456 102.256 29.3327 102.046 29.4448 101.922C29.7624 101.573 29.614 101.047 30.0493 100.698C30.8526 100.055 31.4052 99.2455 31.8052 98.2232C32.1463 97.3516 33.0772 96.7179 33.7118 95.95C33.8536 95.779 34.0313 95.4897 33.8485 95.2466C33.5088 94.7957 33.7811 94.6478 34.1552 94.5418C34.6173 94.4118 34.8619 94.0622 35.0187 93.6594C35.585 92.2083 36.3388 90.8302 36.5075 89.2317C36.6163 88.2004 36.7826 86.968 37.1647 86.2156C38.2285 84.1191 38.2672 81.9085 38.1663 79.8087C38.0749 77.9072 37.7093 75.9596 37.797 74.0548C37.8724 72.4092 37.0446 71.0679 36.8142 69.5353C36.5353 67.68 35.2491 66.0608 34.9957 64.1324C34.8392 62.948 33.5889 62.0482 33.5997 61.1102C33.6242 58.9416 31.7034 57.7746 31.3642 55.8189C31.2563 55.1971 31.0014 54.2656 30.4606 53.6739C29.3492 52.4593 29.0241 50.7784 27.8732 49.5685C26.424 48.0449 25.6716 46.0049 24.1263 44.4926C23.1982 43.5838 22.4726 42.4116 21.6604 41.3657C20.9245 40.4197 20.9905 38.9526 20.7474 37.7018C20.395 35.8912 21.4338 34.4812 21.9026 32.8906C23.0229 29.0905 25.3578 25.9491 28.0913 23.4144C33.4296 18.4638 39.8233 16.837 46.9321 19.4282C47.6539 19.6911 48.3747 19.9558 49.1026 20.2004C53.371 21.6335 57.0585 24.0023 60.4836 26.9097C64.9659 30.7145 67.0883 36.0203 69.5716 41.0425C70.4404 42.7989 70.7782 44.9524 71.434 46.9029C71.883 48.2381 72.3664 49.5713 72.6754 50.9418C72.9868 52.3237 73.4113 53.6664 73.825 55.0133C74.2377 56.3579 74.819 57.6568 75.146 59.0193C75.4372 60.231 76.0331 61.3137 76.2843 62.5697C76.6197 64.2488 77.1676 65.9213 77.6237 67.5971C79.2632 73.6238 80.4895 79.7296 81.2283 85.9352C81.6377 89.3745 81.9359 92.8462 82.6482 96.227C84.9492 107.154 89.9808 116.808 96.9111 125.485C100.009 129.363 103.295 133.091 106.538 136.851C111.181 142.235 113.701 148.643 115.599 155.365C116.779 159.544 116.575 163.673 115.041 167.706C114.166 170.005 112.863 171.924 110.114 172.378C107.553 172.801 105.055 172.194 102.635 171.747C101.196 171.48 99.6276 170.796 98.1832 170.097C94.718 168.42 91.2034 166.837 88.1906 164.396C87.473 163.816 86.5798 163.738 85.8627 163.158C84.945 162.416 84.3038 161.414 83.3026 160.747C82.7279 160.365 82.0391 160.328 81.509 159.838C78.148 156.733 74.3489 154.122 71.3153 150.641C70.2623 149.432 68.9615 148.442 67.8143 147.312C63.5068 143.068 58.494 139.893 52.8471 137.819C45.9244 135.276 39.4638 131.867 33.4202 127.702C31.1093 126.109 28.634 124.607 26.9771 122.186C26.0164 120.782 24.7812 119.35 24.6313 117.741C24.409 115.361 24.1668 112.876 24.9771 110.505C25.1727 109.933 24.824 109.136 24.9456 108.941C25.4143 108.19 25.697 107.341 26.2049 106.621C27.3017 105.065 28.814 103.735 28.9977 101.643ZM27.6841 55.7502C28.0488 55.8878 28.1392 56.2524 28.265 56.544C29.4626 59.3171 30.7573 62.0562 31.5587 64.981C32.0274 66.6926 32.85 68.3236 32.8232 70.1587C31.9954 66.9131 30.5528 63.8866 29.5281 60.714C28.9844 59.0302 27.9673 57.5164 27.7114 55.7252C26.2476 53.7945 25.5292 51.4757 24.3457 49.3989C25.5975 51.4441 27.0688 53.3767 27.6841 55.7502ZM82.019 63.4654C81.9681 63.7777 82.0171 64.0552 81.7057 64.2121C81.6505 63.7316 81.2637 63.2727 81.8998 62.8515C82.2696 62.607 81.9219 62.2093 81.8272 61.9135C80.9749 59.2525 80.1462 56.5803 79.3232 53.9152C78.5402 51.3777 77.605 48.875 77.0179 46.2763C76.7235 44.9718 76.0908 43.7991 75.6116 42.5681C75.3911 42.0027 75.2055 41.4633 75.2055 40.8489C75.2051 39.5995 75.1184 39.567 73.9632 40.2237C73.8666 40.2784 73.7205 40.2454 73.5646 40.2553C73.5646 40.1163 73.5217 39.9788 73.5707 39.8963C74.3076 38.6733 74.1516 37.2066 73.2862 36.0284C72.7151 35.251 72.1955 34.4647 71.9486 33.4433C71.5778 31.906 70.5239 30.6961 69.3 29.6851C69.1888 29.5932 68.9358 29.6356 68.924 29.4218C68.8552 28.1544 67.8352 27.5467 67.0659 26.7919C66.3314 26.0716 65.4259 25.5453 64.7357 24.7543C63.5546 23.3993 62.226 22.2776 60.6072 21.3754C59.86 20.9589 59.101 20.1679 58.269 19.8419C55.1949 18.6367 52.1806 17.2884 49.0669 16.1652C43.8059 14.267 38.6263 14.8239 33.4048 16.0908C30.3331 16.8361 27.5562 18.2104 25.0178 20.0977C24.0473 20.8195 23.2619 21.6981 22.4643 22.5899C19.4166 25.9957 17.28 29.8948 16.2068 34.3271C15.5194 37.1657 15.9529 39.9411 17.3747 42.4965C17.7488 43.1688 18.0367 44.0502 19.2988 43.8981C19.8486 43.8316 20.3942 44.8544 20.8206 45.5037C23.8353 50.0929 26.2866 54.9677 28.2606 60.0888C30.3387 65.4794 32.1521 70.9266 32.8522 76.7134C33.3605 80.914 32.7928 84.9426 31.7691 88.9962C30.9493 92.2427 29.2551 94.9569 27.3207 97.5999C25.871 99.58 24.5745 101.671 23.1432 103.666C22.6358 104.372 23.2761 104.823 23.4264 105.732C22.6429 104.667 22.5143 104.881 22.1807 105.757C21.8471 106.633 21.2356 107.451 20.7527 108.3C19.72 110.117 19.1297 112.099 19.1099 114.141C19.1024 114.915 18.6977 115.562 18.8022 116.295C18.9337 117.219 18.9982 118.167 19.2597 119.056C19.7214 120.628 20.0112 122.286 21.548 123.353C21.9725 123.648 21.7204 124.563 22.2028 125.081C24.2673 127.297 26.2112 129.66 28.793 131.303C34.9355 135.215 41.3692 138.546 48.1087 141.353C52.8011 143.308 57.281 145.777 60.9794 149.408C66.4218 154.752 72.1465 159.782 78.0361 164.621C83.6194 169.209 89.6017 173.146 96.4623 175.61C99.3428 176.644 102.296 177.258 105.349 177.469C109.706 177.769 112.968 175.786 115.5 172.493C120.361 166.167 121.502 159.048 119.631 151.392C118.374 146.243 116.522 141.305 113.91 136.684C112.684 134.515 111.515 132.319 109.493 130.669C108.528 129.881 108.011 128.552 107.269 127.483C104.733 123.83 101.543 120.698 99.0186 117.023C97.8945 115.386 96.9442 113.66 95.8847 111.994C93.5724 108.359 91.9937 104.346 90.2552 100.433C88.7297 97.0002 88.178 93.2486 87.6282 89.5304C87.0365 85.5245 86.4099 81.5222 85.7277 77.5308C85.3338 75.2252 85.0591 72.8446 84.2389 70.6844C83.6693 69.1834 83.6481 67.5849 82.9664 66.1301C82.5749 65.2957 82.9956 64.1527 82.019 63.4654Z" fill="#FF0467"/>
<path fill-rule="evenodd" clip-rule="evenodd" d="M67.8281 79.897C67.9563 79.8297 68.0849 79.7618 68.213 79.6945C68.6248 80.787 69.7951 81.5639 69.2566 83.0559C68.7803 82.003 68.3044 80.95 67.8281 79.897ZM43.2936 120.985C40.6218 120.483 37.8818 117.967 38.1602 116.263C39.4539 118.375 41.329 119.729 43.2936 120.985ZM65.9302 137.133C65.852 137.237 65.7733 137.341 65.6951 137.444C62.1353 134.358 58.575 131.272 55.0156 128.187C55.091 128.098 55.1669 128.01 55.2427 127.922L65.9302 137.133ZM76.2109 146.951C79.5574 149.422 82.9966 151.75 86.693 153.686C90.4295 155.643 94.2094 157.505 98.0425 159.241C90.2548 156.06 82.5594 152.708 76.2109 146.951ZM52.1641 47.027C53.0644 48.4946 54.1569 49.7888 54.8914 51.3934C56.554 55.0239 58.4838 58.5338 60.0658 62.2095C62.4238 67.6859 64.9052 73.1043 67.8144 78.3159C67.9963 78.6424 68.1654 78.9708 67.6825 79.4443C61.8961 68.8406 57.7822 57.5704 52.1641 47.027ZM76.5489 141.294C75.0403 140.619 74.2945 139.16 73.2119 138.046C71.79 137.22 71.0037 135.732 69.7383 134.733C67.5565 133.012 65.3167 131.346 63.2758 129.468C59.0522 125.578 54.3885 122.402 49.2169 119.902C47.2971 118.974 45.0573 118.775 43.4169 117.17C42.4134 116.188 41.1936 115.394 41.1032 113.856C40.9689 111.578 41.3251 109.376 42.4228 107.328C44.4524 103.542 47.1864 100.233 49.5759 96.6903C52.0592 93.009 54.2782 89.263 54.8436 84.6785C55.3835 80.2933 55.0584 75.9466 54.8007 71.5925C54.7484 70.7105 54.1515 69.8696 54.119 68.8482C54.0742 67.4216 54.0596 65.8358 53.1537 64.6669C51.5193 62.5572 50.9775 59.9839 49.9076 57.6424C49.5571 56.8745 49.7719 55.7429 49.0977 55.1554C48.1979 54.3709 47.9557 53.3382 47.5251 52.3521C47.3574 51.9672 47.1242 51.5804 46.8288 51.2869C45.854 50.3178 45.2401 49.0382 44.5612 47.9325C43.2284 45.7611 41.7448 43.8389 39.8726 42.1353C39.3331 41.6439 38.4809 41.7038 38.1567 40.9377C37.8326 40.1731 37.2366 39.6072 36.6119 39.08C35.974 38.5415 35.648 37.8372 35.3945 37.0132C35.8624 36.8789 36.1644 37.0697 36.4725 37.1828C38.4107 37.8928 40.0681 39.1451 41.9399 39.9964C45.2232 41.4899 47.9929 43.6566 50.186 46.5531C51.827 48.7202 52.9407 51.1724 54.1152 53.5912C56.4426 58.3849 58.8076 63.1636 60.9904 68.0237C62.2129 70.7464 63.4845 73.4412 64.8376 76.0955C67.0858 80.5053 69.089 85.0281 71.0414 89.5683C72.6051 93.2045 73.8992 96.9532 74.7463 100.84C75.4851 104.234 76.7731 107.45 78.0324 110.672C80.43 116.807 82.869 122.917 86.8218 128.283C90.3731 133.103 93.9702 137.891 97.1795 142.956C99.5747 146.736 101.654 150.649 102.674 155.044C102.784 155.516 103.133 156.134 102.732 156.481C102.393 156.775 101.838 156.389 101.409 156.219C96.9091 154.438 92.5771 152.318 88.3854 149.892C87.6283 149.454 86.9556 148.463 85.7971 148.947C85.6336 149.016 85.292 148.786 85.3914 148.59C85.7424 147.895 85.0612 147.904 84.8002 147.731C83.1517 146.642 81.5244 145.525 79.9165 144.375C78.6586 143.476 77.7846 142.194 76.5489 141.294ZM43.331 52.4402C43.6942 52.4657 43.7984 52.7601 43.9317 53.0216C45.6183 56.3317 46.8692 59.8341 48.4008 63.2111C49.1353 64.8323 48.8842 66.7771 50.118 68.2187C50.3291 68.4656 50.2627 68.7087 49.9682 68.835C49.5819 69.0008 49.3741 68.7431 49.3308 68.4275C49.1631 67.1964 48.5751 66.1166 48.1666 64.9703C47.1141 62.0178 46.2124 59.0228 44.8042 56.1914C44.2191 55.014 43.5703 53.7745 43.3607 52.412C42.32 51.033 41.577 49.4976 40.9961 47.8779C41.7249 49.4236 43.1228 50.6264 43.331 52.4402ZM89.0407 124.202C89.4977 123.428 89.3427 122.942 89.0355 122.193C88.2869 120.367 86.7581 118.932 86.4693 116.894C86.3666 116.167 85.8017 115.617 85.4559 115.005C84.5754 113.448 84.4062 111.635 83.6143 110.118C82.8628 108.678 82.5406 107.101 81.7745 105.694C81.3675 104.946 81.5107 104.016 80.9807 103.291C80.6231 102.803 79.7393 99.7649 79.6366 99.1803C79.3788 97.7075 79.0792 96.2418 78.7819 94.7762C78.731 94.5246 78.618 94.2659 78.2755 94.3201C77.9221 94.3757 77.7511 94.215 77.8868 93.9013C78.3947 92.7253 77.7883 91.6719 77.3365 90.7485C76.0225 88.065 74.8815 85.3065 73.7277 82.5594C73.4992 82.0148 72.4377 82.1627 72.8161 81.0777C73.0069 80.5298 72.3902 79.5804 71.9633 78.8719C71.5478 78.1803 71.2684 77.4085 70.892 76.6915C68.1194 71.4059 65.5715 66.0153 63.1575 60.5554C61.8185 57.527 60.2205 54.6145 58.8099 51.6162C58.4538 50.8587 58.2206 50.0083 57.9812 49.198C57.7612 48.4536 57.4385 47.386 56.5292 46.9182C56.3605 46.8315 56.2555 46.7547 56.2004 46.5818C55.0885 43.0804 52.1016 41.2491 49.4378 39.1983C47.5307 37.7298 45.2047 36.8624 43.0409 35.8476C41.7019 35.2201 40.4704 34.2213 38.9105 34.0008C37.3468 33.7794 35.7935 33.4972 34.2082 33.4651C32.6704 33.4341 31.2486 33.794 29.9751 34.6778C29.308 35.1405 29.2067 35.7284 29.4978 36.4714C30.2191 38.314 31.307 39.8565 32.9823 40.9518C33.624 41.3721 34.3099 41.7358 34.7372 42.4217C35.0421 42.9112 35.5584 42.295 36.1247 42.8519C38.1284 44.8226 39.3764 47.2192 40.6617 49.6281C43.3235 54.6178 45.3051 59.8935 47.2131 65.1984C48.0386 67.4942 48.4682 69.8875 48.8437 72.294C49.0812 73.8134 49.2409 75.3337 49.3426 76.8658C49.3893 77.5763 49.6753 78.16 50.5473 77.7275C51.0674 77.4693 51.2276 77.8476 51.4717 78.1152C51.645 78.3056 51.6097 78.5232 51.4429 78.6834C51.1386 78.9746 50.8743 78.6712 50.6364 78.5553C49.6602 78.0804 49.3412 78.3635 49.3907 79.4311C49.5283 82.3728 49.6027 85.3155 48.8385 88.2072C48.4583 89.6484 47.9245 91.0312 47.2287 92.3371C45.1948 96.1566 42.5678 99.5991 40.2447 103.236C38.5454 105.898 36.7975 108.559 36.4404 111.808C36.357 112.564 35.7568 113.486 36.8027 114.099C36.8606 114.133 36.9115 114.24 36.9068 114.309C36.7042 117.281 36.7961 117.355 38.8158 119.438C40.1265 120.79 41.725 121.73 43.3537 122.479C49.3464 125.235 54.3964 129.244 59.3399 133.534C65.3577 138.758 70.8402 144.586 77.092 149.513C83.9412 154.91 91.7756 158.609 100.091 161.164C104.481 162.512 107.733 159.236 106.776 154.681C105.821 150.133 104.096 145.876 101.805 141.825C99.1747 137.176 96.1609 132.772 93.2446 128.309C92.4446 127.085 91.7662 125.757 90.7905 124.627C90.2845 124.041 89.909 123.527 89.0407 124.202Z" fill="#FF0467"/>
</svg>
