<svg width="74" height="111" viewBox="0 0 74 111" fill="none" xmlns="http://www.w3.org/2000/svg">
<path fill-rule="evenodd" clip-rule="evenodd" d="M70.1398 90.6082C69.4969 91.2487 68.9155 91.6409 69.3393 92.4179C69.783 93.2312 70.3861 92.8654 70.9932 92.6765C71.2932 92.5834 71.659 92.3951 71.9284 92.7383C72.2078 93.0933 72.0746 93.4351 71.8332 93.7672C71.6856 93.9705 71.4288 94.1799 71.5904 94.4634C71.7785 94.7926 72.1118 94.6643 72.4052 94.6321C74.8854 94.3609 77.2777 93.7183 79.597 92.8265C81.0319 92.2744 82.4497 91.6438 83.6631 90.667C85.344 89.3136 85.0373 87.3217 83.0343 86.5218C81.8505 86.0491 80.6066 85.961 79.3756 86.2055C75.8355 86.9087 72.7801 88.6362 70.1398 90.6082ZM67.0987 88.8429C71.2612 85.1303 75.9831 82.4586 81.4556 81.1995C82.9048 80.8662 84.3684 80.9807 85.8181 81.2279C86.7132 81.3802 87.1244 82.178 87.7307 82.721C87.9166 82.8877 87.9275 83.906 88.5686 83.033C88.6087 82.9788 88.8653 83.3185 88.9423 83.525C89.4519 84.8957 89.63 86.2658 89.1365 87.7024C87.728 91.8019 84.8387 94.403 80.8939 95.948C77.4337 97.3029 73.8907 98.1631 70.1225 97.9147C68.2172 97.7891 66.7622 96.7054 65.2916 95.7579C64.0486 94.9572 63.9854 92.9614 64.8704 91.5456C65.4917 90.5519 66.2862 89.6964 67.0987 88.8429Z" fill="#FFD66D"/>
<path fill-rule="evenodd" clip-rule="evenodd" d="M14.6601 43.6023C17.2179 42.2419 18.9342 40.3967 19.7174 37.7865C20.2973 35.8541 19.45 34.8908 17.4197 35.0776C15.936 35.2141 14.5808 35.7744 13.2722 36.4562C11.3072 37.4799 10.8131 39.0447 11.7375 41.0422C12.1091 41.8456 12.5877 42.0459 13.2924 41.5662C13.9022 41.1509 14.5705 40.8662 15.1103 41.454C15.7134 42.1115 15.0412 42.6882 14.719 43.2541C14.7017 43.2843 14.7053 43.327 14.6601 43.6023ZM21.1395 41.9695C18.0382 45.1617 14.6665 46.8505 10.7533 47.4816C9.89481 47.6207 9.02583 47.6814 8.17148 47.4702C6.97154 47.1741 6.39192 46.1036 6.98208 45.0559C7.31421 44.4673 7.18681 44.1448 6.85321 43.6729C5.3513 41.5489 5.29741 38.855 7.04622 36.9925C10.6698 33.1329 15.2136 30.917 20.5122 30.7286C24.3607 30.5921 25.9215 33.1013 24.5985 36.7585C23.8133 38.9285 22.415 40.6911 21.1395 41.9695Z" fill="#FFD66D"/>
<path fill-rule="evenodd" clip-rule="evenodd" d="M45.5758 53.5931C46.1753 52.9191 46.7649 52.0396 46.4122 51.0409C46.0886 50.1238 45.0553 50.1777 44.251 50.1912C40.9415 50.2457 37.901 51.2623 35.0797 52.9525C34.3472 53.391 34.4248 54.0426 34.7648 54.7277C35.0864 55.3761 35.4918 55.6063 36.2111 55.2824C36.6712 55.0753 37.2543 54.8507 37.6562 55.3849C38.0062 55.8503 37.4951 56.1956 37.341 56.5834C37.2631 56.7802 37.006 56.9413 37.1741 57.1756C37.3232 57.3833 37.6017 57.3566 37.8003 57.2934C40.522 56.4267 43.2353 55.5369 45.5758 53.5931ZM31.277 51.4937C34.284 48.7555 37.9647 47.2486 41.7081 45.8641C43.9273 45.0438 46.1602 44.5828 48.5364 45.2989C50.6273 45.9289 51.6445 47.4387 51.0177 49.5732C50.031 52.9317 48.1925 55.7004 45.0206 57.4067C42.2525 58.896 39.3257 59.8693 36.1644 60.0761C35.6808 60.1074 35.1293 60.0837 34.9255 59.7234C34.482 58.9403 33.8125 59.1418 33.2563 59.2668C31.7485 59.6072 30.6789 58.9798 29.8709 57.8373C28.9781 56.5749 28.6355 55.189 29.385 53.7038C29.8339 52.8137 30.4801 52.0926 31.277 51.4937Z" fill="#FFD66D"/>
<path fill-rule="evenodd" clip-rule="evenodd" d="M35.7097 25.7927C36.1827 25.7942 36.4401 25.559 36.7175 25.3724C37.0318 25.1612 37.3689 25.2014 37.4561 25.5417C37.6705 26.3811 38.302 26.2587 38.8884 26.2522C40.4702 26.2355 42.0571 26.0598 43.554 25.6108C45.1766 25.1246 46.8671 24.6373 48.0073 23.1895C48.7164 22.2895 49.5256 21.3315 48.9 20.1734C48.2589 18.9869 46.9705 18.8941 45.7331 18.9336C45.6587 18.936 45.5854 18.9623 45.5108 18.9691C42.6276 19.2403 40.1322 20.5694 37.7391 22.0271C36.448 22.8138 35.6798 24.1396 35.7097 25.7927ZM33.0877 21.5075C35.6229 19.0847 38.7122 17.6397 41.9038 16.2997C44.1063 15.3748 46.3442 14.8473 48.6996 14.6757C50.7612 14.526 53.1611 16.0426 53.7158 18.1765C53.9235 18.9758 53.3585 19.7194 53.6856 20.4918C52.3521 20.5471 53.027 21.8018 52.556 22.3876C50.6464 24.7652 48.5189 26.7592 45.5007 27.7653C42.5458 28.7508 39.5985 29.1213 36.5361 28.6773C36.1952 28.6281 35.9831 28.7382 35.7348 28.9432C35.3912 29.2265 35.0225 29.5126 34.6162 29.6804C32.2796 30.647 30.8644 29.7701 30.7133 27.2471C30.5765 24.9624 31.4417 23.0656 33.0877 21.5075Z" fill="#FFD66D"/>
<path fill-rule="evenodd" clip-rule="evenodd" d="M80.4001 65.771C80.775 65.3317 81.3075 64.9298 81.096 64.3113C80.8989 63.7352 80.2458 63.7691 79.7362 63.7018C79.0224 63.6078 78.3031 63.664 77.6046 63.8242C74.8266 64.4618 72.2752 65.6026 69.9685 67.2908C69.3836 67.7193 68.7454 68.337 69.1484 68.9309C69.5743 69.5583 70.2072 70.4372 71.3178 69.971C71.6271 69.8409 71.958 69.7343 72.2893 69.6883C75.4188 69.2493 77.8646 67.4214 80.4001 65.771ZM67.5368 65.593C70.4663 63.0132 74.0497 61.0535 78.1111 59.9725C78.6181 59.8381 79.1415 59.7663 79.6488 59.6328C81.7002 59.0933 83.4056 59.7742 84.8689 61.1672C85.3741 61.6484 85.2584 62.3141 85.0698 62.9479C84.3871 65.2415 83.0038 67.0354 81.0423 68.339C77.1558 70.9217 72.928 72.7238 68.3399 73.6537C67.5196 73.8204 66.6948 73.8051 65.8771 73.7624C64.9533 73.7138 64.7049 73.1344 65.1835 72.3267C65.3478 72.0499 65.6199 71.81 65.3967 71.4181C64.507 69.8547 65.4539 68.5804 66.1249 67.3008C66.4145 66.7493 66.9276 66.3152 67.5368 65.593Z" fill="#FFD66D"/>
<path fill-rule="evenodd" clip-rule="evenodd" d="M81.5544 41.2532C80.3208 41.1806 79.3956 41.6595 78.4039 41.9529C76.5804 42.4936 75.0348 43.4587 73.5554 44.5848C73.3094 44.7723 73.0895 45.0162 73.2699 45.3495C73.4462 45.6752 73.7857 45.597 74.0645 45.542C74.3175 45.4916 74.6016 45.2227 74.79 45.288C75.427 45.508 76.1891 44.1648 76.7297 45.457C76.7991 45.6219 77.1196 45.5194 77.0835 45.2766C76.9251 44.2178 77.8064 44.1127 78.4273 43.8239C79.6451 43.2569 80.7686 42.6008 81.5544 41.2532ZM85.7628 38.311C84.4802 37.8456 84.4149 38.6279 84.7283 39.3267C85.4438 40.9244 84.4515 42.0614 83.7401 43.1969C83.2853 43.9229 82.4801 44.4996 81.7183 44.9515C78.2708 46.9973 74.5052 48.2383 70.6107 49.0956C69.9696 49.237 69.2745 49.0522 68.6053 49.2206C68.3162 49.293 67.9897 49.2001 67.8338 48.885C67.6801 48.5736 67.7764 48.3414 68.0576 48.1118C68.5816 47.6833 68.7336 47.1165 68.728 46.4215C68.7116 44.5084 70.0762 43.3243 71.3414 42.2629C74.5719 39.5519 78.327 37.8002 82.4514 36.9192C83.7076 36.6506 84.9816 36.7543 85.7628 38.311Z" fill="#FFD66D"/>
<path fill-rule="evenodd" clip-rule="evenodd" d="M48.4995 79.1922C48.3452 79.4713 48.1906 79.7508 47.965 80.1579C49.5393 79.9731 50.9188 79.529 52.1949 78.82C53.0401 78.3502 53.0964 77.2689 52.3729 76.6181C51.6442 75.962 50.7477 75.834 49.8307 76.0089C47.4115 76.4705 45.315 77.6947 43.3855 79.1216C42.8106 79.5472 42.1935 80.2838 41.9524 81.1469C41.7448 81.8923 39.9997 82.5496 39.2576 82.1688C38.3283 81.6923 38.5028 80.8505 38.7761 80.0987C39.3138 78.6173 40.5744 77.6865 41.7102 76.744C44.2791 74.6133 47.2073 73.0991 50.461 72.2711C51.9093 71.9023 53.3638 71.6868 54.6788 72.6714C56.9188 74.3497 57.5163 75.359 56.0571 77.8362C54.1346 81.1007 49.114 83.2762 45.3472 82.6204C44.9299 82.5481 44.5368 82.4462 44.3418 82.0045C44.1189 81.501 44.5052 81.2202 44.7659 80.9349C45.7365 79.8729 47.058 79.4617 48.3276 78.9623C48.385 79.039 48.4421 79.1155 48.4995 79.1922Z" fill="#FFD66D"/>
<path fill-rule="evenodd" clip-rule="evenodd" d="M83.184 17.4027C83.8652 17.9756 84.0778 18.6802 83.507 19.3067C82.498 20.4129 81.7477 21.6343 80.2818 22.4839C77.8154 23.9135 75.2664 24.8698 72.542 25.404C71.3394 25.6395 70.7373 26.6359 69.7133 27.0494C68.8605 27.3938 68.0149 27.6407 67.0967 27.6176C66.5019 27.6027 65.96 27.4955 65.7752 26.811C65.6015 26.1687 65.6888 25.7405 66.2277 25.1506C69.5994 21.4603 74.084 19.6491 78.4671 17.6472C79.4365 17.205 80.4648 17.0178 81.5078 16.8518C82.2075 16.7408 82.7695 16.8904 83.184 17.4027Z" fill="#FFD66D"/>
</svg>
