<svg width="67" height="102" viewBox="0 0 67 102" fill="none" xmlns="http://www.w3.org/2000/svg">
<path fill-rule="evenodd" clip-rule="evenodd" d="M46.6221 24.9887C46.5029 23.2593 48.0072 20.7069 49.7831 19.5699C48.7093 21.4107 47.6997 23.1412 46.6221 24.9887ZM43.0214 14.7397C42.2186 16.3258 41.4577 17.6588 40.8515 19.0609C39.0315 23.268 37.9806 27.4966 40.8166 31.7377C41.3658 32.5585 40.76 32.8884 40.089 33.1278C36.8861 34.2709 33.7202 35.5374 30.4738 36.5344C24.5921 38.3412 18.6663 40.002 12.7493 41.688C11.7354 41.9768 10.6725 42.091 9.3064 42.3474C9.66778 41.1418 9.94861 40.2112 10.2262 39.2795C11.9346 33.5527 13.6206 27.8183 15.3835 22.1091C15.5467 21.5809 16.1688 20.8524 16.6265 20.814C22.9702 20.288 29.0892 18.6772 35.1984 17.0175C37.7547 16.323 40.2871 15.5385 43.0214 14.7397ZM6.64231 15.886C7.4897 17.1218 8.34635 17.9355 8.66691 18.9259C9.48164 21.447 9.33307 21.4607 8.33873 24.4627C5.64634 32.5903 2.99749 40.7328 0.345924 48.8741C-0.0399477 50.0594 -0.310974 51.2124 0.711662 52.3285C1.20692 52.8693 1.3936 53.6977 1.79961 54.5652C2.31392 53.997 2.71829 53.5501 3.38772 52.8105C3.20649 53.7016 3.10417 54.2034 2.94144 55C3.44051 54.7969 3.85196 54.7315 4.11483 54.4966C4.43757 54.2089 4.77718 53.8108 4.86535 53.4062C5.32905 51.2854 6.90845 50.8423 8.72351 50.3356C20.575 47.0305 32.3971 43.6184 44.2247 40.2271C46.03 39.7094 47.8124 39.1121 49.6106 38.5691C50.7197 38.2347 51.4196 37.5644 51.473 36.3511C51.4855 36.065 51.4964 35.6791 51.3336 35.5001C50.1515 34.2033 48.8666 32.9971 47.7476 31.6493C47.3944 31.2233 47.2262 30.4008 47.3525 29.8491C48.6478 24.1959 51.9399 19.8663 56.4452 16.4328C58.8486 14.6018 61.3913 12.9576 63.8459 11.1936C65.237 10.1944 66.4299 9.01013 66.843 7.24121C67.1483 5.93345 67.1266 4.84586 65.6805 4.09096C64.869 3.66712 64.3319 2.73928 63.6015 2.12274C60.28 -0.681625 56.5573 -0.263824 52.7841 0.855069C49.8729 1.71812 46.9889 2.67725 44.0805 3.54963C37.3247 5.5755 30.5647 7.58819 23.7975 9.57452C22.0918 10.0752 20.3611 10.4974 18.625 10.8746C18.0753 10.9943 17.401 11.0096 16.903 10.7939C15.6322 10.2427 14.7652 10.9224 13.7872 11.5208C12.6366 12.2246 11.4404 12.8659 10.2164 13.4303C8.77902 14.0929 6.98519 14.2395 6.64231 15.886Z" fill="#FFD66D"/>
<path fill-rule="evenodd" clip-rule="evenodd" d="M44.7608 95.3632C44.7326 95.6598 44.7521 95.818 44.6999 95.9477C44.0512 97.5639 42.5837 98.3902 41.3221 99.4125C41.2719 99.453 41.1212 99.3988 41.0329 99.3565C40.8635 99.2737 40.8503 99.1113 40.9464 98.9813C41.9744 97.5925 42.6902 95.8752 44.7608 95.3632ZM54.7844 77.1893C54.5869 75.9525 55.5834 75.1854 55.9827 74.2C56.1567 73.7713 56.9271 73.4412 56.2793 72.974C55.6998 72.5556 54.9398 72.7685 54.4771 73.3277C54.2253 73.6313 54.0732 73.9399 53.5774 73.8939C53.5124 73.1533 53.8823 72.5337 54.3934 72.1572C55.2653 71.5148 54.8983 70.8069 54.4278 70.3943C54.1379 70.14 53.338 70.1305 52.8551 70.6358C52.6534 70.8467 52.5606 71.5288 51.9935 70.7982C51.7724 70.5128 51.3312 71.3325 50.9394 71.5872C50.7406 71.7165 50.6735 72.0338 50.4958 72.216C50.3152 72.4007 50.0928 72.3659 49.9089 72.1622C49.6363 71.8602 49.9329 71.8035 50.106 71.7028C51.0947 71.1246 51.7015 70.1769 52.5328 69.2574C51.4207 68.7119 50.9216 69.6111 50.3169 70.0576C49.1161 70.9444 48.1063 72.0362 47.1876 73.2126C47.0836 73.3459 46.9034 73.4557 46.6338 73.3592C46.833 72.4612 47.5719 71.9029 48.1858 71.0952C46.9966 71.0181 46.7145 71.9712 46.2535 72.4894C44.8871 74.0261 43.6548 75.6837 42.404 77.3198C41.9997 77.8487 41.5329 77.9473 40.9236 77.8533C39.1761 77.5836 37.4277 77.3119 35.6724 77.1032C34.6186 76.9781 33.5537 76.9217 32.9564 78.1387C32.809 78.4394 32.2366 78.5682 32.9432 78.9112C33.3077 79.088 32.9221 79.3676 32.7966 79.5453C32.42 80.0771 32.2858 80.4246 33.1304 80.6467C33.8565 80.8372 34.617 81.1806 33.8114 82.1601C33.7111 82.2819 33.6709 82.5657 33.7426 82.6994C34.3444 83.824 34.0512 85.3578 35.3261 86.1709C35.7954 86.4699 35.8529 86.8605 35.5663 87.3199C34.9537 88.3019 35.5303 89.3006 35.5518 90.2888C35.558 90.5804 35.9383 90.4222 36.1209 90.3551C36.6316 90.1675 37.1262 89.9372 37.8233 89.6406C37.3403 90.7797 37.518 91.8798 36.7331 92.7753C36.4602 93.0864 36.6606 93.8427 36.7087 94.3899C36.7269 94.5999 36.9096 94.8111 37.1941 94.5767C37.7156 94.1463 38.4632 94.162 38.9342 93.5896C39.2883 94.1753 39.1935 94.5841 38.7321 94.93C38.6128 95.0199 38.5076 95.1292 38.3957 95.229C36.8338 96.627 36.7961 97.3965 38.2168 98.9527C38.315 99.0608 38.4413 99.258 38.5291 99.2447C39.6984 99.0662 40.5111 99.9099 41.25 100.476C42.1538 101.168 43.1247 101.586 44.1357 101.939C44.8047 102.173 45.3974 101.689 45.8725 101.22C47.7318 99.383 49.2586 97.3033 50.2808 94.8885C50.7054 93.8862 51.1192 93.5068 52.3328 93.9781C54.5695 94.8475 56.9101 95.4775 59.3676 95.2854C62.2434 95.0604 64.485 92.0832 63.9093 89.2678C63.8505 88.98 63.8331 88.613 63.5187 88.502C63.1604 88.3748 63.0229 88.7621 62.8166 88.9543C62.2761 89.458 61.8159 90.0933 60.8032 90.0304C61.0327 89.3536 61.6212 89.1456 62.0499 88.8006C63.1198 87.9403 62.9297 86.2197 61.6415 85.7368C61.1635 85.557 61.2725 85.2418 61.1843 84.9597C60.862 83.9251 59.9619 83.421 59.1534 83.8443C58.9074 83.2474 59.0818 81.9767 57.8127 83.0039C57.7352 83.0668 57.6014 83.0598 57.4937 83.0846C57.3425 81.806 56.4288 82.7893 55.9243 82.5565C55.3187 82.2774 55.6638 81.8694 55.7967 81.5136C56.4106 79.8692 57.2597 78.3209 57.7837 76.6355C57.9162 76.2089 58.0554 75.7206 57.7509 75.4762C57.2709 75.0914 57.1242 75.786 56.8066 75.9678C56.1418 76.3481 55.8129 77.2399 54.7844 77.1893Z" fill="#FFD66D"/>
</svg>
