<svg width="74" height="179" viewBox="0 0 74 179" fill="none" xmlns="http://www.w3.org/2000/svg">
<path fill-rule="evenodd" clip-rule="evenodd" d="M66.1375 39.2484L66.5866 55.3232C68.5117 49.6782 68.2757 44.4167 66.1375 39.2484ZM6.35116 136.529C8.4998 129.789 10.6494 123.049 12.799 116.308C8.99367 122.544 6.86125 129.291 6.35116 136.529ZM14.7197 177.38C10.5224 178.789 6.89485 178.893 4.67297 174.524C3.70332 172.616 4.27976 168.97 5.84949 167.256C3.7883 167.708 2.63801 167.284 2.27406 164.927C1.9747 162.984 0.582105 161.228 0.167626 159.282C-1.5071 151.437 -2.8531 143.506 -0.76444 135.55C-0.228187 133.51 2.20698 131.907 0.27276 129.455C1.49788 123.891 2.70164 118.315 5.52212 113.279C6.19678 112.076 7.12242 111.011 7.94856 109.895C11.4422 105.176 14.9296 100.453 18.4692 95.7696C18.7075 95.4548 19.3873 95.5078 19.8135 95.2938C20.1854 95.1084 20.4906 94.7867 20.8264 94.5262C19.1681 92.4968 21.5561 91.7828 22.3258 91.1511C24.6456 89.2495 27.3216 87.7822 29.8621 86.1507C30.1569 85.9604 30.6217 85.8754 30.7534 85.6126C32.2007 82.737 34.2517 80.849 37.6064 80.2161C38.7896 79.992 39.7146 78.4025 41.1155 77.8802C41.3006 77.2358 41.285 76.3909 41.7006 75.9781C46.0369 71.6663 50.4422 67.4237 54.8941 63.0977C54.5995 60.679 57.5681 55.5771 60.0983 54.7251C59.5193 54.3751 59.1021 54.1217 59.0889 54.114C59.4071 52.6856 59.9717 51.4083 59.9246 50.1532C59.6888 43.7522 59.3343 37.4367 56.6643 31.3519C53.9292 25.1168 52.0905 18.4936 49.5468 12.1661C48.6459 9.92441 46.9013 7.99339 45.394 6.03471C44.5054 4.88008 44.2197 4.10775 45.6506 3.18743C49.4665 0.731913 52.3161 0.784382 54.8936 4.67191C58.3767 9.92471 61.8509 15.3978 64.0114 21.2608C66.6775 28.4972 68.3014 36.1708 69.8022 43.7678C71.4135 51.924 67.8909 58.8621 63.2669 65.2647C58.2105 72.2697 52.0374 78.1163 44.9007 83.0255C36.2652 88.965 29.2067 96.533 22.8912 104.874C16.2756 113.612 11.5748 123.211 9.4459 133.951C7.8184 142.157 7.33086 150.417 9.7591 158.628C11.5222 164.589 13.1276 170.597 14.7866 176.588C14.8522 176.825 14.7461 177.11 14.7197 177.38Z" fill="#FF0467"/>
<path fill-rule="evenodd" clip-rule="evenodd" d="M31.362 139.766C35.1774 137.506 36.2224 137.563 39.2645 140.391C42.5141 143.412 45.617 146.588 48.7948 149.686C49.3131 150.19 49.9582 150.58 50.4167 151.128C51.2229 152.091 51.9303 153.134 52.6798 154.145C51.2328 154.415 49.6968 155.117 48.3597 154.845C46.7559 154.518 45.041 153.651 43.8608 152.513C39.6569 148.455 35.66 144.184 31.362 139.766Z" fill="#FF0467"/>
<path fill-rule="evenodd" clip-rule="evenodd" d="M60.2722 111.325C63.5795 112.078 67.0279 112.761 70.4018 113.711C71.1237 113.915 71.5737 115.089 72.1492 115.815C71.4308 116.348 70.779 117.046 69.9758 117.369C69.1716 117.696 68.2015 117.815 67.329 117.738C63.3587 117.388 59.3949 116.948 55.4321 116.509C54.7156 116.43 53.9745 116.294 53.3252 116.005C52.8805 115.808 52.246 115.261 52.283 114.938C52.3406 114.421 52.7891 113.684 53.2438 113.521C55.4437 112.734 57.7021 112.109 60.2722 111.325Z" fill="#FF0467"/>
<path fill-rule="evenodd" clip-rule="evenodd" d="M23.923 29.5079C25.7705 27.2084 27.4013 27.0328 29.1035 28.3418C31.3905 30.1006 33.7005 31.8588 35.772 33.8538C36.4351 34.4935 36.3759 35.8827 36.6472 36.9285C35.1378 37.1147 33.0742 38.0177 32.2204 37.3563C29.2583 35.0641 26.7171 32.228 23.923 29.5079Z" fill="#FF0467"/>
<path fill-rule="evenodd" clip-rule="evenodd" d="M12.5298 46.0064C18.0594 43.4089 22.0493 47.3941 26.5348 48.8544C26.9457 48.989 27.4259 50.4201 27.2523 50.581C26.3923 51.3794 25.0046 52.7346 24.3822 52.4799C20.4314 50.8606 16.6305 48.874 12.796 46.9763C12.6449 46.9015 12.6566 46.498 12.5298 46.0064Z" fill="#FF0467"/>
<path fill-rule="evenodd" clip-rule="evenodd" d="M47.5452 132.033C48.8998 131.82 50.3914 131.14 51.5845 131.485C54.8592 132.434 58.0381 133.745 61.1855 135.077C61.8557 135.36 62.2331 136.336 62.7446 136.994C61.9458 137.442 61.042 138.391 60.3668 138.25C57.6599 137.683 54.9696 136.921 52.3794 135.948C50.599 135.279 48.9947 134.144 47.3111 133.216C47.3892 132.822 47.4672 132.428 47.5452 132.033Z" fill="#FF0467"/>
<path fill-rule="evenodd" clip-rule="evenodd" d="M14.2903 72.8104C14.6882 71.8339 14.7358 71.3184 15.0175 71.0874C17.9674 68.6781 20.8754 66.205 23.9793 64.0094C24.8603 63.3866 26.3401 63.6094 27.6374 63.8892C23.7746 67.6406 20.3264 71.7284 14.2903 72.8104Z" fill="#FF0467"/>
</svg>
