<svg width="89" height="181" viewBox="0 0 89 181" fill="none" xmlns="http://www.w3.org/2000/svg">
<path fill-rule="evenodd" clip-rule="evenodd" d="M5.26214 57.3475C5.18347 57.053 5.03316 56.8943 4.75583 56.9479C4.27852 57.0398 4.01129 57.3334 3.98404 57.8265C3.9691 58.0968 4.1282 58.1491 4.35323 58.1091C4.8156 58.0269 5.03008 57.6661 5.26214 57.3475ZM2.81769 144.175C3.28928 142.849 3.59474 141.48 3.99118 140.136C3.21413 141.368 2.79351 142.707 2.81769 144.175ZM6.31304 54.5975C8.28029 52.4764 10.3332 50.4392 12.4183 48.4338C9.8845 49.998 7.92736 52.1287 6.31304 54.5975ZM45.0845 33.6046C49.146 31.7675 52.5241 29.0153 55.7484 26.0494C52.3848 28.5766 49.0256 31.1065 45.4348 33.3102C45.3065 33.3893 45.201 33.5058 45.0845 33.6046ZM91.5354 135.677C90.3549 139.71 88.0114 143.131 86.8317 147.046C88.3155 145.999 92.1468 136.991 91.5354 135.677ZM43.8962 175.775C44.6882 175.775 45.4877 175.843 46.2713 175.762C49.4824 175.432 52.6513 174.823 55.8197 174.223C60.5207 173.333 64.857 171.336 69.3057 169.696C71.3582 168.94 73.3215 167.908 74.7121 166.087C79.3076 160.07 83.0075 153.592 85.634 146.442C87.7304 140.736 90.4581 135.264 92.6987 129.607C94.2985 125.569 95.3195 121.337 95.777 116.995C96.1581 113.378 95.944 109.751 95.97 106.126C95.9911 103.145 95.9383 100.167 96.126 97.1761C96.2579 95.07 95.7854 92.8759 95.6047 90.7184C95.2861 86.9192 95.3437 83.1671 96.4983 79.4818C97.5636 76.0817 99.0079 72.8443 100.801 69.7857C104.431 63.593 108.981 58.0763 113.754 52.7498C116.318 49.8895 118.832 47.001 120.952 43.7948C124.853 37.8952 126.724 31.3795 126.563 24.3244C126.437 18.809 124.021 14.5268 119.263 11.6173C110.992 6.56026 102.26 4.94198 92.8859 8.02164C85.6261 10.4069 79.1622 14.1968 73.249 19.0103C69.561 22.0126 66.1939 25.3736 62.5161 28.3846C57.507 32.4866 52.4179 36.4664 46.5183 39.2555C41.9527 41.4144 37.1537 42.9329 32.327 44.3604C28.2065 45.5792 24.2773 47.2243 20.5652 49.3836C16.2808 51.8757 12.6628 55.0639 10.1584 59.4076C9.86089 59.9249 9.84946 59.9183 9.17173 59.9323C8.96604 59.9367 8.95329 60.1077 8.88429 60.2448C8.25755 61.4952 7.84836 62.7997 7.83166 64.2136C7.82023 65.1687 8.18898 66.5347 7.86199 66.9944C6.81199 68.4694 7.60268 69.8983 7.79606 71.1412C8.03647 72.683 8.44038 74.2828 8.91286 75.8277C10.0982 79.706 11.4603 83.5148 13.3919 87.0774C15.1632 90.3456 16.879 93.6429 17.3902 97.3444C17.5378 98.4173 18.8309 99.6422 17.4508 100.788C17.4504 100.788 17.5475 100.895 17.5888 100.959C18.3215 102.088 18.6915 103.363 18.7474 104.672C18.8014 105.923 19.2484 107.092 19.302 108.328C19.3886 110.324 20.1288 112.263 19.7011 114.313C19.5068 115.245 19.5521 116.235 19.5504 117.198C19.5464 119.344 18.8194 121.388 18.7069 123.538C18.6647 124.344 17.9611 125.368 17.5734 126.29C16.1837 129.597 13.7185 132.116 11.5556 134.875C9.5207 137.471 7.23437 140.015 7.02032 143.573C6.93418 145.009 6.50697 146.524 7.24755 147.871C9.23986 151.491 10.2877 155.595 13.021 158.841C15.1482 161.367 16.5766 164.428 19.1684 166.623C21.7031 168.769 24.123 171.08 27.0511 172.666C28.4883 173.445 29.9457 174.241 31.633 174.614C35.687 175.508 39.7652 175.832 43.8962 175.775ZM77.4503 8.70075C77.674 8.63307 77.9161 8.59922 78.1188 8.49154C83.1797 5.79997 88.4543 3.66834 94.0484 2.35948C94.2506 2.31201 94.5279 2.31904 94.6479 2.00831C94.2695 2.06237 93.9139 2.10456 93.5614 2.16565C88.9167 2.97348 84.6112 4.74603 80.4293 6.84513C79.3885 7.36771 78.2493 7.77338 77.4714 8.72536C76.2245 8.81239 75.4632 9.86458 74.3842 10.2975C74.1952 10.3731 73.9913 10.7168 74.2796 11.0086C74.3754 11.1053 74.5077 11.1677 74.5671 11.0539C75.1951 9.85623 76.7185 9.76261 77.4503 8.70075ZM63.3097 26.9192C64.7575 26.0187 65.9095 24.7885 67.0592 23.557C65.8211 24.6896 64.325 25.5392 63.333 26.9439C62.276 27.3183 61.6005 28.1767 60.8458 28.9335C61.8049 28.4334 62.6281 27.7635 63.3097 26.9192ZM95.2568 142.086C94.4164 144.384 93.6117 146.669 91.9108 148.562C90.8827 149.706 90.0631 151.083 89.3849 152.47C89.1392 152.974 88.6878 153.126 88.4307 153.576C87.8308 154.627 87.6106 155.814 86.8423 156.835C85.1106 159.136 83.4014 161.447 81.5937 163.695C80.4008 165.178 79.2845 166.736 78.0451 168.184C75.7354 170.882 72.7876 172.691 69.5155 173.98C65.7343 175.468 61.9888 177.084 58.1238 178.318C50.9211 180.618 43.5693 181.545 35.961 180.637C31.3773 180.091 26.9132 179.225 22.9848 176.884C16.7025 173.14 11.5232 168.154 7.8652 161.721C7.72807 161.48 7.55182 161.261 7.38701 161.037C5.89179 159.003 4.54205 156.902 3.85553 154.426C3.51535 153.201 3.01299 152.025 2.45833 150.869C0.813235 147.441 1.12924 143.989 2.45789 140.55C3.79532 137.09 6.02892 134.152 8.52578 131.547C11.8621 128.066 13.4277 124.029 13.9261 119.363C14.3897 115.023 13.6281 110.82 12.855 106.601C12.3807 104.013 11.9566 101.413 11.4472 98.8316C10.6253 94.6698 8.71082 90.9604 6.74488 87.2416C4.18561 82.3995 2.22934 77.3021 1.04662 71.9269C0.0568362 67.4289 0.544694 63.0123 2.07639 58.7714C2.95893 56.3282 4.10605 53.9302 5.96519 51.9511C7.7751 50.0238 9.60126 48.1366 11.7597 46.5974C16.9473 42.8971 22.6662 40.3014 28.7297 38.4119C35.6524 36.2548 42.3945 33.7026 48.3095 29.3571C52.6923 26.1372 56.8624 22.6625 60.8676 18.9864C66.3215 13.9808 72.0339 9.3211 78.6353 5.87489C85.0346 2.5346 91.7183 -0.0655468 99.033 0.0012589C110.043 0.101907 119.469 3.99246 126.147 13.0482C131.086 19.7463 131.886 27.4215 130.273 35.4347C129.981 36.8815 129.686 38.328 129.348 39.7643C128.479 43.454 126.979 46.8466 124.774 49.9583C123.49 51.7718 122.104 53.5083 120.819 55.3023C119.309 57.408 117.629 59.3375 115.891 61.2186C113.879 63.3973 112.097 65.735 110.402 68.1554C109.812 68.9984 108.876 69.51 108.305 70.4171C106.147 73.8475 103.903 77.2269 102.362 81.0001C101.53 83.0368 100.682 85.023 100.518 87.3181C100.418 88.7254 100.504 90.1279 100.381 91.5264C100.197 93.6212 100.559 95.6855 100.892 97.7328C101.02 98.5186 100.067 99.1546 100.272 99.2095C101.383 99.5045 100.602 100.129 100.625 100.582C100.638 100.85 100.468 101.145 100.528 101.391C101.559 105.575 101.114 109.847 101.202 114.073C101.283 117.996 101.626 121.992 100.566 125.837C100.178 127.239 99.8962 128.679 99.4879 130.081C98.9979 131.762 98.0938 133.339 97.9431 135.093C97.7308 137.564 96.4821 139.634 95.5829 141.843C95.5337 141.964 95.3513 142.032 95.2291 142.128C95.3442 140.812 96.4215 139.832 96.4593 138.479C95.5363 140.441 94.3839 142.299 93.9057 144.461C94.3562 143.669 94.8063 142.878 95.2568 142.086Z" fill="#82CEF9"/>
<path fill-rule="evenodd" clip-rule="evenodd" d="M54.7068 46.127C57.2854 44.6137 59.3762 42.5401 61.3334 40.3144C59.1327 42.2619 56.9694 44.2511 54.7068 46.127ZM69.614 33.1758C69.5283 33.0844 69.4426 32.993 69.3569 32.9016C67.0973 34.966 64.6497 36.8198 62.6877 39.2174L69.614 33.1758ZM17.6696 142.563C16.3454 143.878 15.7424 147.954 16.6113 148.794C16.8592 146.729 16.8658 144.587 17.6696 142.563ZM27.6942 60.4392C24.5873 62.5449 21.8144 64.9605 20.4721 68.6366C22.6086 65.6641 24.9556 62.8829 27.6942 60.4392ZM73.8553 29.4309C79.0498 25.3619 84.4971 21.75 90.5923 19.1868C86.5993 19.7155 75.5236 27.0347 73.8553 29.4309ZM72.0273 126.481C70.7861 128.96 70.017 131.615 69.2861 134.264C68.5385 136.973 67.5294 139.588 66.6538 142.248C65.8262 144.762 64.6303 147.155 63.5966 149.601C68.0207 142.466 69.6707 134.351 72.0273 126.481ZM27.5835 86.6851C27.6042 86.5326 27.5704 86.3128 27.6574 86.242C27.8147 86.1137 27.896 86.3093 28.0006 86.4249C28.2969 86.7501 28.1584 87.2411 28.5645 87.5667C29.3139 88.1667 29.8294 88.9217 30.2026 89.8755C30.5208 90.6886 31.3893 91.2797 31.9813 91.9961C32.1136 92.1557 32.2793 92.4255 32.1087 92.6523C31.7919 93.0729 32.0459 93.2109 32.3949 93.3098C32.826 93.4311 33.0541 93.7572 33.2005 94.133C33.7288 95.4867 34.432 96.7723 34.5894 98.2636C34.6909 99.2256 34.846 100.375 35.2025 101.077C36.1949 103.033 36.2309 105.095 36.1369 107.054C36.0516 108.828 35.7105 110.645 35.7923 112.422C35.8626 113.957 35.0904 115.208 34.8755 116.638C34.6153 118.369 33.4154 119.88 33.179 121.679C33.033 122.783 31.8666 123.623 31.8767 124.498C31.8995 126.521 30.1077 127.61 29.7912 129.434C29.6906 130.014 29.4528 130.883 28.9482 131.435C27.9114 132.568 27.6082 134.136 26.5344 135.265C25.1825 136.687 24.4806 138.59 23.039 140C22.1732 140.848 21.4963 141.942 20.7386 142.917C20.0521 143.8 20.1136 145.169 19.8868 146.336C19.5581 148.025 20.5272 149.34 20.9645 150.824C22.0097 154.369 24.1879 157.3 26.7379 159.664C31.718 164.283 37.6826 165.8 44.3144 163.383C44.9878 163.138 45.6602 162.891 46.3393 162.663C50.3212 161.326 53.7613 159.116 56.9565 156.403C61.138 152.854 63.118 147.904 65.4347 143.219C66.2452 141.58 66.5603 139.571 67.1721 137.752C67.591 136.506 68.0419 135.263 68.3302 133.984C68.6207 132.695 69.0167 131.442 69.4026 130.186C69.7876 128.931 70.33 127.72 70.635 126.449C70.9066 125.318 71.4626 124.308 71.6969 123.136C72.0098 121.57 72.5209 120.01 72.9464 118.446C74.4759 112.824 75.6199 107.128 76.3091 101.339C76.691 98.1304 76.9692 94.8916 77.6338 91.7377C79.7804 81.5441 84.4743 72.5376 90.9396 64.4431C93.8293 60.8255 96.8949 57.3472 99.9201 53.8395C104.252 48.8172 106.602 42.8394 108.373 36.5685C109.475 32.6695 109.284 28.8177 107.853 25.055C107.037 22.9106 105.821 21.1201 103.256 20.6968C100.868 20.3026 98.5374 20.8682 96.2792 21.2858C94.9365 21.5345 93.4738 22.1731 92.1262 22.8249C88.8936 24.3892 85.6149 25.8663 82.8042 28.143C82.1348 28.6845 81.3015 28.757 80.6326 29.2981C79.7764 29.9903 79.1782 30.9251 78.2443 31.547C77.7081 31.9035 77.0655 31.9382 76.571 32.3953C73.4356 35.2917 69.8914 37.7279 67.0613 40.975C66.079 42.1028 64.8655 43.0262 63.7953 44.081C59.7769 48.0397 55.1005 51.0016 49.8325 52.9367C43.3743 55.3092 37.3473 58.4895 31.7092 62.3752C29.5534 63.8608 27.2442 65.262 25.6985 67.5206C24.8023 68.8308 23.6499 70.1665 23.5101 71.6674C23.3027 73.8874 23.0768 76.2058 23.8327 78.4174C24.0151 78.951 23.6899 79.6946 23.8033 79.877C24.2406 80.5772 24.5043 81.3692 24.9781 82.0407C26.0013 83.4925 27.4121 84.7332 27.5835 86.6851ZM26.3577 129.498C26.6979 129.37 26.7822 129.03 26.8996 128.758C28.0168 126.171 29.2246 123.616 29.9722 120.887C30.4095 119.29 31.1769 117.769 31.1519 116.057C30.3796 119.085 29.0339 121.908 28.0779 124.868C27.5707 126.439 26.6218 127.851 26.3832 129.522C25.0176 131.323 24.3473 133.486 23.2433 135.423C24.4111 133.516 25.7837 131.713 26.3577 129.498ZM77.0467 122.301C76.9992 122.009 77.0449 121.751 76.7544 121.604C76.703 122.053 76.3422 122.481 76.9355 122.874C77.2805 123.102 76.9562 123.473 76.8678 123.749C76.0727 126.231 75.2996 128.724 74.5318 131.21C73.8013 133.577 72.9289 135.912 72.3813 138.336C72.1066 139.553 71.5163 140.647 71.0693 141.796C70.8637 142.323 70.6905 142.826 70.6905 143.4C70.69 144.565 70.6092 144.596 69.5315 143.983C69.4414 143.932 69.3051 143.963 69.1597 143.953C69.1597 144.083 69.1197 144.211 69.1654 144.288C69.8528 145.429 69.7073 146.797 68.8999 147.897C68.3672 148.622 67.8824 149.355 67.6521 150.308C67.3062 151.742 66.3231 152.871 65.1812 153.814C65.0775 153.9 64.8415 153.86 64.8305 154.06C64.7663 155.242 63.8148 155.809 63.097 156.513C62.4118 157.185 61.5671 157.676 60.9232 158.414C59.8214 159.678 58.5819 160.725 57.0718 161.566C56.3747 161.955 55.6667 162.693 54.8905 162.997C52.0227 164.121 49.2107 165.379 46.306 166.427C41.3979 168.198 36.5659 167.678 31.6948 166.496C28.8292 165.801 26.2387 164.519 23.8706 162.758C22.9653 162.085 22.2326 161.265 21.4885 160.433C18.6453 157.256 16.6521 153.619 15.6509 149.484C15.0097 146.836 15.414 144.247 16.7405 141.863C17.0894 141.235 17.358 140.413 18.5354 140.555C19.0483 140.617 19.5573 139.663 19.955 139.057C22.7675 134.776 25.0543 130.228 26.8958 125.451C28.8345 120.422 30.5262 115.34 31.1793 109.942C31.6535 106.023 31.1239 102.265 30.1688 98.4833C29.4041 95.4546 27.8236 92.9226 26.019 90.4569C24.6666 88.6097 23.4571 86.6587 22.1218 84.7982C21.6485 84.1389 22.2458 83.7183 22.386 82.8705C21.6551 83.8643 21.5351 83.6647 21.2239 82.8472C20.9127 82.0302 20.3423 81.2672 19.8918 80.4752C18.9283 78.7795 18.3776 76.931 18.3592 75.0261C18.3521 74.3036 17.9746 73.7006 18.0722 73.0167C18.1948 72.1544 18.255 71.2701 18.4989 70.4407C18.9297 68.974 19.2 67.4278 20.6336 66.4319C21.0296 66.1568 20.7945 65.3032 21.2446 64.8202C23.1705 62.7523 24.9839 60.5486 27.3925 59.0152C33.1228 55.3663 39.1248 52.2585 45.412 49.6399C49.7895 47.8164 53.9688 45.5129 57.419 42.1252C62.4962 37.1402 67.8367 32.448 73.3311 27.9329C78.5397 23.6529 84.1206 19.9799 90.5208 17.6817C93.208 16.717 95.9633 16.1443 98.8109 15.9479C102.875 15.6675 105.919 17.5174 108.281 20.59C112.815 26.4913 113.88 33.1328 112.135 40.2748C110.962 45.0782 109.234 49.6843 106.798 53.9959C105.654 56.0194 104.564 58.0676 102.677 59.6072C101.777 60.3416 101.295 61.5819 100.603 62.5787C98.2369 65.9867 95.2605 68.909 92.9056 72.3376C91.8569 73.864 90.9704 75.4744 89.982 77.0285C87.8248 80.4202 86.352 84.1636 84.7302 87.8137C83.3071 91.0164 82.7924 94.5163 82.2795 97.9849C81.7275 101.722 81.1429 105.456 80.5065 109.179C80.1391 111.33 79.8829 113.551 79.1177 115.566C78.5863 116.966 78.5665 118.458 77.9306 119.815C77.5653 120.593 77.9578 121.66 77.0467 122.301Z" fill="#82CEF9"/>
<path fill-rule="evenodd" clip-rule="evenodd" d="M63.8082 106.972C63.9277 107.035 64.0477 107.098 64.1672 107.161C64.5514 106.142 65.6431 105.417 65.1408 104.025C64.6964 105.007 64.2525 105.99 63.8082 106.972ZM40.9202 68.6414C38.4278 69.1095 35.8716 71.4564 36.1313 73.0466C37.3382 71.0758 39.0875 69.8131 40.9202 68.6414ZM62.0378 53.577C61.9648 53.4799 61.8914 53.3832 61.8185 53.287C58.4975 56.1653 55.1761 59.0441 51.8556 61.9229C51.9259 62.0051 51.9967 62.0873 52.0675 62.1699L62.0378 53.577ZM71.6283 44.418C74.7501 42.1128 77.9586 39.9412 81.407 38.1348C84.8927 36.3086 88.4189 34.5721 91.9948 32.9525C84.7297 35.9197 77.5507 39.0468 71.6283 44.418ZM49.1951 137.636C50.035 136.267 51.0542 135.06 51.7394 133.563C53.2905 130.176 55.0907 126.902 56.5666 123.473C58.7663 118.364 61.0812 113.309 63.7952 108.447C63.9649 108.142 64.1227 107.836 63.6722 107.394C58.2741 117.286 54.4363 127.8 49.1951 137.636ZM71.9433 49.6952C70.536 50.3251 69.8402 51.6862 68.8302 52.7248C67.5038 53.4957 66.7703 54.8841 65.5897 55.8154C63.5544 57.421 61.4649 58.9751 59.561 60.7279C55.6207 64.356 51.27 67.3192 46.4455 69.6513C44.6545 70.5175 42.565 70.7026 41.0347 72.2004C40.0985 73.1164 38.9606 73.8569 38.8762 75.2915C38.751 77.417 39.0832 79.4708 40.1073 81.3814C42.0007 84.9133 44.5512 88.0009 46.7804 91.3055C49.0971 94.7399 51.1672 98.2344 51.6946 102.511C52.1983 106.602 51.895 110.657 51.6546 114.719C51.6058 115.542 51.0489 116.326 51.0186 117.279C50.9769 118.61 50.9632 120.09 50.118 121.18C48.5934 123.148 48.0879 125.549 47.0898 127.733C46.7628 128.45 46.9632 129.505 46.3343 130.053C45.4948 130.785 45.2689 131.749 44.8672 132.668C44.7107 133.027 44.4932 133.388 44.2176 133.662C43.3083 134.566 42.7356 135.76 42.1022 136.791C40.8589 138.817 39.4748 140.61 37.7282 142.2C37.225 142.658 36.4299 142.602 36.1275 143.317C35.8251 144.03 35.2692 144.558 34.6864 145.05C34.0913 145.552 33.7871 146.209 33.5507 146.978C33.9871 147.103 34.2688 146.925 34.5563 146.82C36.3644 146.157 37.9106 144.989 39.6568 144.195C42.7198 142.802 45.3036 140.78 47.3496 138.078C48.8804 136.057 49.9194 133.769 51.0151 131.512C53.1863 127.04 55.3926 122.582 57.4289 118.049C58.5694 115.509 59.7557 112.995 61.0179 110.518C63.1153 106.405 64.9841 102.185 66.8054 97.9496C68.2642 94.5575 69.4715 91.0603 70.2617 87.4343C70.9509 84.2685 72.1525 81.268 73.3273 78.2622C75.564 72.5388 77.8394 66.8384 81.5269 61.8332C84.8399 57.3361 88.1956 52.8694 91.1895 48.1446C93.424 44.618 95.3636 40.9679 96.3155 36.8677C96.4175 36.4277 96.7436 35.8506 96.3696 35.5272C96.0527 35.2529 95.5358 35.6133 95.1355 35.7715C90.9372 37.4329 86.8959 39.4111 82.9856 41.6742C82.2793 42.0829 81.6517 43.0072 80.5709 42.5554C80.4184 42.4916 80.0998 42.7057 80.1925 42.889C80.5199 43.5368 79.8844 43.5289 79.6409 43.6898C78.1031 44.7063 76.585 45.7475 75.0849 46.8204C73.9114 47.6594 73.0961 48.8553 71.9433 49.6952ZM40.9546 132.586C41.2935 132.563 41.3906 132.288 41.515 132.044C43.0884 128.956 44.2553 125.689 45.6842 122.538C46.3694 121.026 46.1351 119.211 47.2862 117.867C47.4831 117.636 47.4211 117.41 47.1464 117.292C46.786 117.137 46.5922 117.377 46.5518 117.672C46.3953 118.82 45.8468 119.828 45.4657 120.897C44.4839 123.651 43.6426 126.445 42.3289 129.087C41.7831 130.185 41.1779 131.342 40.9823 132.613C40.0114 133.899 39.3183 135.331 38.7764 136.842C39.4563 135.4 40.7603 134.278 40.9546 132.586ZM83.597 65.6403C84.0233 66.362 83.8787 66.8152 83.5921 67.514C82.8938 69.218 81.4675 70.5567 81.1981 72.4576C81.1023 73.1362 80.5753 73.6487 80.2527 74.2196C79.4313 75.6726 79.2735 77.3634 78.5347 78.7791C77.8337 80.1222 77.533 81.5933 76.8184 82.9065C76.4387 83.6036 76.5723 84.4717 76.0778 85.1476C75.7442 85.603 74.9197 88.4374 74.8239 88.9828C74.5835 90.3567 74.3039 91.724 74.0266 93.0914C73.9791 93.326 73.8737 93.5673 73.5541 93.5168C73.2245 93.4649 73.065 93.6148 73.1915 93.9075C73.6653 95.0045 73.0997 95.9873 72.6782 96.8487C71.4524 99.3522 70.3879 101.926 69.3115 104.488C69.0984 104.996 68.1082 104.858 68.4611 105.871C68.6391 106.382 68.0638 107.267 67.6656 107.928C67.2779 108.574 67.0173 109.293 66.6661 109.962C64.0796 114.893 61.7027 119.922 59.4507 125.016C58.2016 127.841 56.7107 130.558 55.3948 133.355C55.0626 134.062 54.845 134.855 54.6217 135.611C54.4165 136.305 54.1154 137.301 53.2672 137.738C53.1098 137.819 53.0118 137.89 52.9604 138.052C51.9231 141.318 49.1366 143.026 46.6516 144.94C44.8725 146.31 42.7026 147.119 40.684 148.065C39.4349 148.651 38.286 149.583 36.8308 149.788C35.372 149.995 33.923 150.258 32.444 150.288C31.0094 150.317 29.683 149.981 28.495 149.157C27.8726 148.725 27.7781 148.177 28.0498 147.484C28.7227 145.765 29.7375 144.326 31.3004 143.304C31.899 142.912 32.5389 142.572 32.9376 141.933C33.2219 141.476 33.7036 142.051 34.2319 141.531C36.1012 139.693 37.2654 137.457 38.4644 135.21C40.9477 130.555 42.7962 125.633 44.5763 120.684C45.3463 118.543 45.7471 116.31 46.0974 114.065C46.3189 112.647 46.4679 111.229 46.5629 109.8C46.6064 109.137 46.8732 108.592 47.6867 108.996C48.1719 109.237 48.3213 108.884 48.549 108.634C48.7108 108.457 48.6778 108.254 48.5222 108.104C48.2383 107.833 47.9917 108.116 47.7698 108.224C46.8591 108.667 46.5615 108.403 46.6077 107.407C46.736 104.662 46.8055 101.917 46.0926 99.2195C45.7379 97.875 45.2399 96.585 44.5908 95.3667C42.6934 91.8036 40.2427 88.5921 38.0755 85.1995C36.4901 82.7162 34.8595 80.2334 34.5264 77.2026C34.4486 76.4972 33.8887 75.6375 34.8644 75.0648C34.9184 75.0336 34.9659 74.9334 34.9615 74.8692C34.7725 72.0968 34.8582 72.0273 36.7424 70.0842C37.9651 68.8233 39.4564 67.946 40.9758 67.2476C46.5664 64.6769 51.2775 60.9367 55.8893 56.9341C61.5032 52.0612 66.6178 46.6244 72.4501 42.0276C78.8397 36.9925 86.1483 33.5424 93.9062 31.1589C98.0011 29.901 101.035 32.957 100.142 37.2066C99.2511 41.4496 97.642 45.4211 95.5047 49.1995C93.0509 53.5366 90.2393 57.6456 87.5187 61.8087C86.7724 62.951 86.1395 64.19 85.2293 65.2439C84.7573 65.7902 84.407 66.2702 83.597 65.6403Z" fill="#82CEF9"/>
<path fill-rule="evenodd" clip-rule="evenodd" d="M71.9431 49.6953C71.2377 51.0459 70.1275 51.9821 68.8301 52.7249C69.8401 51.6863 70.5358 50.3251 71.9431 49.6953Z" fill="#82CEF9"/>
</svg>
