<svg width="67" height="210" viewBox="0 0 67 210" fill="none" xmlns="http://www.w3.org/2000/svg">
<path fill-rule="evenodd" clip-rule="evenodd" d="M10.07 199.989C10.9166 197.218 10.8255 194.7 9.53359 192.3C8.57719 190.524 7.2969 190.442 5.99341 192.009C5.04074 193.155 4.47867 194.51 4.03548 195.917C3.36986 198.03 4.12702 199.486 6.19305 200.245C7.02394 200.55 7.504 200.353 7.66305 199.516C7.80057 198.791 8.07187 198.117 8.86921 198.151C9.76057 198.19 9.69305 199.073 9.86536 199.701C9.87447 199.734 9.90719 199.762 10.07 199.989ZM13.4975 194.253C13.5617 198.703 12.3717 202.281 10.051 205.495C9.54233 206.2 8.97073 206.857 8.2173 207.312C7.15943 207.951 5.99262 207.604 5.66913 206.446C5.48771 205.795 5.1696 205.657 4.60008 205.559C2.03617 205.119 0.093154 203.252 0.0127993 200.699C-0.154124 195.407 1.49191 190.628 5.1054 186.748C7.7302 183.93 10.6081 184.601 12.2587 188.122C13.2378 190.212 13.4955 192.447 13.4975 194.253Z" fill="#32A9DF"/>
<path fill-rule="evenodd" clip-rule="evenodd" d="M38.9919 185.195C38.9393 184.294 38.7343 183.255 37.7787 182.799C36.9015 182.379 36.2089 183.148 35.6498 183.726C33.348 186.105 31.917 188.973 31.1172 192.164C30.9092 192.992 31.4249 193.398 32.1498 193.641C32.8357 193.873 33.2851 193.749 33.5647 193.011C33.7436 192.539 33.9971 191.968 34.659 192.062C35.2356 192.143 35.1183 192.749 35.2836 193.132C35.3677 193.326 35.2998 193.622 35.5843 193.669C35.8366 193.71 36.0147 193.494 36.1103 193.309C37.4221 190.772 38.7115 188.224 38.9919 185.195ZM27.3985 193.82C27.5887 189.758 29.1258 186.089 30.7937 182.463C31.7829 180.314 33.0358 178.409 35.2224 177.235C37.1463 176.202 38.9332 176.551 39.9994 178.503C41.6765 181.576 42.3342 184.833 41.2979 188.283C40.3937 191.293 39.0123 194.051 36.9231 196.433C36.6033 196.797 36.1966 197.17 35.7977 197.059C34.9304 196.819 34.5994 197.435 34.2946 197.917C33.4691 199.224 32.2691 199.536 30.8898 199.3C29.366 199.039 28.1437 198.301 27.6234 196.721C27.3116 195.774 27.2585 194.807 27.3985 193.82Z" fill="#32A9DF"/>
<path fill-rule="evenodd" clip-rule="evenodd" d="M12.3605 172.511C12.696 172.178 12.7117 171.83 12.7759 171.502C12.8488 171.13 13.1156 170.92 13.4179 171.099C14.1631 171.541 14.523 171.008 14.9331 170.589C16.0398 169.458 17.0376 168.212 17.7787 166.836C18.5822 165.345 19.433 163.805 19.2155 161.975C19.0805 160.837 18.9753 159.587 17.714 159.211C16.4217 158.825 15.445 159.671 14.598 160.574C14.5471 160.628 14.5139 160.698 14.4659 160.756C12.619 162.986 11.7943 165.691 11.1328 168.414C10.7762 169.883 11.1705 171.364 12.3605 172.511ZM7.47626 171.336C7.55579 167.83 8.71845 164.624 10.0277 161.42C10.9311 159.208 12.1406 157.253 13.6847 155.466C15.0367 153.903 17.806 153.278 19.7072 154.395C20.4192 154.813 20.5456 155.738 21.323 156.053C20.4192 157.035 21.7836 157.445 21.8648 158.192C22.1957 161.224 22.1013 164.138 20.6785 166.984C19.286 169.77 17.4639 172.116 14.9845 173.968C14.7086 174.174 14.6366 174.402 14.6059 174.722C14.5632 175.166 14.5048 175.629 14.3363 176.035C13.3674 178.37 11.7467 178.751 9.85585 177.074C8.14354 175.555 7.41413 173.602 7.47626 171.336Z" fill="#32A9DF"/>
<path fill-rule="evenodd" clip-rule="evenodd" d="M72.2305 169.178C72.1849 168.602 72.2773 167.942 71.6904 167.654C71.1436 167.386 70.7058 167.872 70.2978 168.185C69.7266 168.623 69.2577 169.171 68.8771 169.778C67.3636 172.194 66.3662 174.804 65.9288 177.629C65.8182 178.346 65.8037 179.234 66.5087 179.369C67.2534 179.511 68.3225 179.685 68.7781 178.57C68.9048 178.26 69.0635 177.95 69.2652 177.683C71.1676 175.16 71.6046 172.138 72.2305 169.178ZM63.0092 178.149C63.2564 174.253 64.4046 170.334 66.512 166.698C66.7755 166.244 67.0948 165.823 67.3591 165.37C68.4281 163.538 70.1156 162.814 72.1352 162.764C72.8328 162.747 73.2217 163.3 73.5365 163.881C74.6755 165.986 74.9659 168.232 74.5007 170.541C73.5787 175.115 71.8635 179.379 69.2768 183.281C68.8146 183.979 68.2206 184.551 67.6122 185.099C66.9246 185.718 66.3393 185.484 66.1065 184.575C66.027 184.263 66.0498 183.901 65.6149 183.781C63.8802 183.305 63.6487 181.734 63.2183 180.355C63.0332 179.76 63.0891 179.091 63.0092 178.149Z" fill="#32A9DF"/>
<path fill-rule="evenodd" clip-rule="evenodd" d="M55.7094 151.028C54.7858 151.849 54.4701 152.841 53.9764 153.75C53.0693 155.422 52.6588 157.197 52.4091 159.039C52.3676 159.346 52.3846 159.674 52.7479 159.782C53.1029 159.888 53.2876 159.592 53.4458 159.356C53.5891 159.142 53.5999 158.751 53.7792 158.664C54.3852 158.369 53.9743 156.88 55.2704 157.412C55.436 157.479 55.5901 157.18 55.393 157.034C54.5323 156.397 55.0811 155.7 55.3159 155.057C55.7761 153.794 56.1066 152.536 55.7094 151.028ZM56.6049 145.971C55.3689 146.549 55.8759 147.148 56.5917 147.421C58.2273 148.044 58.3297 149.55 58.6295 150.856C58.8213 151.691 58.6598 152.668 58.4407 153.526C57.4495 157.411 55.6643 160.951 53.5166 164.311C53.1633 164.864 52.5412 165.225 52.1871 165.817C52.0338 166.073 51.7372 166.238 51.4042 166.126C51.0753 166.014 50.9792 165.782 51.0157 165.421C51.0832 164.747 50.79 164.239 50.2946 163.751C48.9302 162.41 49.0578 160.608 49.2019 158.963C49.5693 154.762 50.9859 150.868 53.2793 147.328C53.9776 146.25 54.9518 145.423 56.6049 145.971Z" fill="#32A9DF"/>
<path fill-rule="evenodd" clip-rule="evenodd" d="M59.1617 201.228C59.2499 201.534 59.3382 201.841 59.4666 202.288C60.4491 201.045 61.1105 199.755 61.5115 198.351C61.777 197.422 61.0521 196.617 60.0804 196.669C59.1012 196.72 58.3768 197.263 57.852 198.035C56.4678 200.072 55.851 202.421 55.4956 204.794C55.39 205.501 55.4745 206.459 55.9144 207.239C56.2946 207.913 55.5254 209.612 54.7314 209.867C53.7373 210.188 53.2656 209.469 52.9272 208.744C52.2599 207.316 52.4931 205.767 52.6298 204.297C52.9396 200.974 53.9395 197.833 55.6547 194.947C56.4181 193.662 57.2941 192.481 58.9202 192.247C61.6908 191.85 62.827 192.141 63.5469 194.925C64.4958 198.593 62.484 203.681 59.3568 205.881C59.0105 206.125 58.6605 206.331 58.2103 206.156C57.6967 205.958 57.7712 205.486 57.7539 205.1C57.6892 203.663 58.3329 202.438 58.8776 201.187C58.9724 201.2 59.0669 201.214 59.1617 201.228Z" fill="#32A9DF"/>
<path fill-rule="evenodd" clip-rule="evenodd" d="M39.9966 133.01C40.8834 132.934 41.532 133.281 41.5714 134.128C41.6401 135.624 41.9732 137.018 41.5374 138.655C40.8043 141.41 39.6781 143.889 38.1294 146.193C37.4455 147.21 37.7243 148.34 37.2927 149.357C36.9331 150.203 36.5098 150.976 35.8442 151.609C35.413 152.019 34.9541 152.326 34.3394 151.973C33.7624 151.641 33.5214 151.277 33.4853 150.479C33.26 145.485 35.1504 141.033 36.8342 136.518C37.2069 135.52 37.8017 134.661 38.4218 133.806C38.8381 133.233 39.3413 132.941 39.9966 133.01Z" fill="#32A9DF"/>
<path fill-rule="evenodd" clip-rule="evenodd" d="M46.6221 24.9887C46.5029 23.2593 48.0072 20.7069 49.7831 19.5699C48.7093 21.4107 47.6997 23.1412 46.6221 24.9887ZM43.0214 14.7397C42.2186 16.3258 41.4577 17.6588 40.8515 19.0609C39.0315 23.268 37.9806 27.4966 40.8166 31.7377C41.3658 32.5585 40.76 32.8884 40.089 33.1278C36.8861 34.2709 33.7202 35.5374 30.4738 36.5344C24.5921 38.3412 18.6663 40.002 12.7493 41.688C11.7354 41.9768 10.6725 42.091 9.3064 42.3474C9.66778 41.1418 9.94861 40.2112 10.2262 39.2795C11.9346 33.5527 13.6206 27.8183 15.3835 22.1091C15.5467 21.5809 16.1688 20.8524 16.6265 20.814C22.9702 20.288 29.0892 18.6772 35.1984 17.0175C37.7547 16.323 40.2871 15.5385 43.0214 14.7397ZM6.64231 15.886C7.4897 17.1218 8.34635 17.9355 8.66691 18.9259C9.48164 21.447 9.33307 21.4607 8.33873 24.4627C5.64634 32.5903 2.99749 40.7328 0.345924 48.8741C-0.0399477 50.0594 -0.310974 51.2124 0.711662 52.3285C1.20692 52.8693 1.3936 53.6977 1.79961 54.5652C2.31392 53.997 2.71829 53.5501 3.38772 52.8105C3.20649 53.7016 3.10417 54.2034 2.94144 55C3.44051 54.7969 3.85196 54.7315 4.11483 54.4966C4.43757 54.2089 4.77718 53.8108 4.86535 53.4062C5.32905 51.2854 6.90845 50.8423 8.72351 50.3356C20.575 47.0305 32.3971 43.6184 44.2247 40.2271C46.03 39.7094 47.8124 39.1121 49.6106 38.5691C50.7197 38.2347 51.4196 37.5644 51.473 36.3511C51.4855 36.065 51.4964 35.6791 51.3336 35.5001C50.1515 34.2033 48.8666 32.9971 47.7476 31.6493C47.3944 31.2233 47.2262 30.4008 47.3525 29.8491C48.6478 24.1959 51.9399 19.8663 56.4452 16.4328C58.8486 14.6018 61.3913 12.9576 63.8459 11.1936C65.237 10.1944 66.4299 9.01013 66.843 7.24121C67.1483 5.93345 67.1266 4.84586 65.6805 4.09096C64.869 3.66712 64.3319 2.73928 63.6015 2.12274C60.28 -0.681625 56.5573 -0.263824 52.7841 0.855069C49.8729 1.71812 46.9889 2.67725 44.0805 3.54963C37.3247 5.5755 30.5647 7.58819 23.7975 9.57452C22.0918 10.0752 20.3611 10.4974 18.625 10.8746C18.0753 10.9943 17.401 11.0096 16.903 10.7939C15.6322 10.2427 14.7652 10.9224 13.7872 11.5208C12.6366 12.2246 11.4404 12.8659 10.2164 13.4303C8.77902 14.0929 6.98519 14.2395 6.64231 15.886Z" fill="#82CEF9"/>
<path fill-rule="evenodd" clip-rule="evenodd" d="M44.7608 95.3632C44.7326 95.6598 44.7521 95.818 44.6999 95.9477C44.0512 97.5639 42.5837 98.3902 41.3221 99.4125C41.2719 99.453 41.1212 99.3988 41.0329 99.3565C40.8635 99.2737 40.8503 99.1113 40.9464 98.9813C41.9744 97.5925 42.6902 95.8752 44.7608 95.3632ZM54.7844 77.1893C54.5869 75.9525 55.5834 75.1854 55.9827 74.2C56.1567 73.7713 56.9271 73.4412 56.2793 72.974C55.6998 72.5556 54.9398 72.7685 54.4771 73.3277C54.2253 73.6313 54.0732 73.9399 53.5774 73.8939C53.5124 73.1533 53.8823 72.5337 54.3934 72.1572C55.2653 71.5148 54.8983 70.8069 54.4278 70.3943C54.1379 70.14 53.338 70.1305 52.8551 70.6358C52.6534 70.8467 52.5606 71.5288 51.9935 70.7982C51.7724 70.5128 51.3312 71.3325 50.9394 71.5872C50.7406 71.7165 50.6735 72.0338 50.4958 72.216C50.3152 72.4007 50.0928 72.3659 49.9089 72.1622C49.6363 71.8602 49.9329 71.8035 50.106 71.7028C51.0947 71.1246 51.7015 70.1769 52.5328 69.2574C51.4207 68.7119 50.9216 69.6111 50.3169 70.0576C49.1161 70.9444 48.1063 72.0362 47.1876 73.2126C47.0836 73.3459 46.9034 73.4557 46.6338 73.3592C46.833 72.4612 47.5719 71.9029 48.1858 71.0952C46.9966 71.0181 46.7145 71.9712 46.2535 72.4894C44.8871 74.0261 43.6548 75.6837 42.404 77.3198C41.9997 77.8487 41.5329 77.9473 40.9236 77.8533C39.1761 77.5836 37.4277 77.3119 35.6724 77.1032C34.6186 76.9781 33.5537 76.9217 32.9564 78.1387C32.809 78.4394 32.2366 78.5682 32.9432 78.9112C33.3077 79.088 32.9221 79.3676 32.7966 79.5453C32.42 80.0771 32.2858 80.4246 33.1304 80.6467C33.8565 80.8372 34.617 81.1806 33.8114 82.1601C33.7111 82.2819 33.6709 82.5657 33.7426 82.6994C34.3444 83.824 34.0512 85.3578 35.3261 86.1709C35.7954 86.4699 35.8529 86.8605 35.5663 87.3199C34.9537 88.3019 35.5303 89.3006 35.5518 90.2888C35.558 90.5804 35.9383 90.4222 36.1209 90.3551C36.6316 90.1675 37.1262 89.9372 37.8233 89.6406C37.3403 90.7797 37.518 91.8798 36.7331 92.7753C36.4602 93.0864 36.6606 93.8427 36.7087 94.3899C36.7269 94.5999 36.9096 94.8111 37.1941 94.5767C37.7156 94.1463 38.4632 94.162 38.9342 93.5896C39.2883 94.1753 39.1935 94.5841 38.7321 94.93C38.6128 95.0199 38.5076 95.1292 38.3957 95.229C36.8338 96.627 36.7961 97.3965 38.2168 98.9527C38.315 99.0608 38.4413 99.258 38.5291 99.2447C39.6984 99.0662 40.5111 99.9099 41.25 100.476C42.1538 101.168 43.1247 101.586 44.1357 101.939C44.8047 102.173 45.3974 101.689 45.8725 101.22C47.7318 99.383 49.2586 97.3033 50.2808 94.8885C50.7054 93.8862 51.1192 93.5068 52.3328 93.9781C54.5695 94.8475 56.9101 95.4775 59.3676 95.2854C62.2434 95.0604 64.485 92.0832 63.9093 89.2678C63.8505 88.98 63.8331 88.613 63.5187 88.502C63.1604 88.3748 63.0229 88.7621 62.8166 88.9543C62.2761 89.458 61.8159 90.0933 60.8032 90.0304C61.0327 89.3536 61.6212 89.1456 62.0499 88.8006C63.1198 87.9403 62.9297 86.2197 61.6415 85.7368C61.1635 85.557 61.2725 85.2418 61.1843 84.9597C60.862 83.9251 59.9619 83.421 59.1534 83.8443C58.9074 83.2474 59.0818 81.9767 57.8127 83.0039C57.7352 83.0668 57.6014 83.0598 57.4937 83.0846C57.3425 81.806 56.4288 82.7893 55.9243 82.5565C55.3187 82.2774 55.6638 81.8694 55.7967 81.5136C56.4106 79.8692 57.2597 78.3209 57.7837 76.6355C57.9162 76.2089 58.0554 75.7206 57.7509 75.4762C57.2709 75.0914 57.1242 75.786 56.8066 75.9678C56.1418 76.3481 55.8129 77.2399 54.7844 77.1893Z" fill="#82CEF9"/>
</svg>
