<svg width="43" height="46" viewBox="0 0 43 46" fill="none" xmlns="http://www.w3.org/2000/svg">
<rect x="3.2002" y="13.1716" width="30.5789" height="30.5789" rx="15.2895" fill="url(#paint0_linear_107_507)"/>
<path d="M13.0454 29.6923L15.0754 35.3109C15.0754 35.3109 15.3292 35.8366 15.6009 35.8366C15.8727 35.8366 19.9148 31.6316 19.9148 31.6316L24.4097 22.9497L13.1178 28.2419L13.0454 29.6923Z" fill="#C8DAEA"/>
<path d="M15.7373 31.1333L15.3476 35.2748C15.3476 35.2748 15.1845 36.5437 16.4532 35.2748C17.7219 34.0058 18.9363 33.0272 18.9363 33.0272" fill="#A9C6D8"/>
<path d="M13.0828 29.8928L8.90709 28.5323C8.90709 28.5323 8.40805 28.3298 8.56875 27.8707C8.60182 27.776 8.66855 27.6955 8.86817 27.557C9.79339 26.9121 25.9932 21.0895 25.9932 21.0895C25.9932 21.0895 26.4506 20.9354 26.7204 21.0379C26.7871 21.0585 26.8471 21.0965 26.8944 21.148C26.9416 21.1995 26.9743 21.2626 26.9891 21.3309C27.0183 21.4515 27.0305 21.5755 27.0253 21.6995C27.0241 21.8067 27.0111 21.9061 27.0012 22.0619C26.9026 23.6538 23.95 35.5349 23.95 35.5349C23.95 35.5349 23.7733 36.2302 23.1404 36.254C22.9848 36.259 22.8299 36.2327 22.6847 36.1765C22.5396 36.1204 22.4073 36.0356 22.2956 35.9272C21.0536 34.8588 16.7607 31.9738 15.8121 31.3393C15.7907 31.3247 15.7727 31.3057 15.7592 31.2836C15.7458 31.2615 15.7373 31.2367 15.7342 31.211C15.721 31.1441 15.7937 31.0613 15.7937 31.0613C15.7937 31.0613 23.2687 24.4169 23.4676 23.7194C23.483 23.6654 23.4248 23.6387 23.3467 23.6624C22.8502 23.845 14.2437 29.2801 13.2938 29.88C13.2254 29.9007 13.1531 29.9051 13.0828 29.8928Z" fill="white"/>
<rect x="2.2002" y="12.1716" width="32.5789" height="32.5789" rx="16.2895" stroke="white" stroke-opacity="0.22" stroke-width="2"/>
<circle cx="31.7738" cy="11.3041" r="11.2255" fill="#FB086A"/>
<path d="M34.855 13.7954V15.5647H28.1778C28.2501 14.8958 28.467 14.2631 28.8285 13.6666C29.1901 13.0655 29.9041 12.2701 30.9707 11.2804C31.8293 10.4805 32.3558 9.9382 32.5502 9.65348C32.8123 9.26031 32.9433 8.87165 32.9433 8.48751C32.9433 8.0627 32.8281 7.73731 32.5976 7.51135C32.3716 7.28086 32.0576 7.16562 31.6553 7.16562C31.2576 7.16562 30.9413 7.28538 30.7063 7.5249C30.4713 7.76443 30.3357 8.16212 30.2996 8.71799L28.4015 8.52818C28.5144 7.47971 28.8692 6.72725 29.4657 6.2708C30.0623 5.81436 30.808 5.58613 31.7028 5.58613C32.6835 5.58613 33.454 5.85051 34.0144 6.37927C34.5748 6.90802 34.855 7.56558 34.855 8.35193C34.855 8.79934 34.7736 9.22641 34.6109 9.63315C34.4528 10.0354 34.1997 10.4579 33.8517 10.9008C33.6212 11.1946 33.2055 11.6171 32.6044 12.1685C32.0033 12.7198 31.6214 13.0859 31.4588 13.2666C31.3006 13.4474 31.1718 13.6237 31.0724 13.7954H34.855Z" fill="white"/>
<defs>
<linearGradient id="paint0_linear_107_507" x1="18.4897" y1="43.7506" x2="18.4897" y2="13.1716" gradientUnits="userSpaceOnUse">
<stop stop-color="#1D93D2"/>
<stop offset="1" stop-color="#38B0E3"/>
</linearGradient>
</defs>
</svg>
